<svg xmlns="http://www.w3.org/2000/svg" xmlns:xlink="http://www.w3.org/1999/xlink" width="460" height="590" viewBox="0 0 460 590">
  <defs>
    <clipPath id="clip-path">
      <rect id="Rectangle_1601" data-name="Rectangle 1601" width="460" height="590" transform="translate(-181.707 -96.254)" fill="#e4f4f9"/>
    </clipPath>
    <radialGradient id="radial-gradient" cx="0.5" cy="0.5" r="0.5" gradientUnits="objectBoundingBox">
      <stop offset="0" stop-color="#49c5e0"/>
      <stop offset="0.369" stop-color="#49c5e0"/>
      <stop offset="1" stop-color="#fff"/>
    </radialGradient>
  </defs>
  <g id="Mask_Group_126" data-name="Mask Group 126" transform="translate(181.707 96.253)" clip-path="url(#clip-path)">
    <path id="Path_953" data-name="Path 953" d="M134.469,425.644a25.5,25.5,0,0,0,4.731-.566s-3.161,15.081-3.161,41.4,4.16,91.638,4.445,98.9-.712,44.254-.712,49.374,4.7,20.208,4.7,26.039-5.416,29.884-5.416,45.535,2.564,29.74,4.415,40.553a357.21,357.21,0,0,1,4.136,44.4c.282,13.947-1.283,21.345-2.994,25.613s-2.849,9.961-2.567,13.092,1.287,12.665,1.287,15.51-1.714,9.962-1.569,13.659,4.419,7.687,9.26,7.687a13.078,13.078,0,0,0,7.984-2.708c4.128,3.56,9.831.289,9.831.289,2.708,2.134,7.267.141,7.267.141a9.15,9.15,0,0,0,8.406-1.278c2.282.136,5.561-.711,5.561-3.987s-5.134-7.4-10.12-11.384a15.987,15.987,0,0,1-5.7-12.381c0-2.559,1.139-6.116.427-8.824A56.891,56.891,0,0,1,172.4,792.2c0-17.5,6.129-42.12,13.111-60.191s9.69-45.961,8.978-54.641a360.452,360.452,0,0,1-.712-43.828c.857-18.637-1.565-42.116-.141-57.2a377.322,377.322,0,0,1,13.537-74.279c10.116-36,17.811-62.75,17.811-101.459s-10.4-57.345-19.095-74.56-13.822-16.508-13.822-41.69,12.539-53.223,12.539-53.223-1.139,38.7,2.994,60.476c5.911,31.151,17.67,55.782,25.508,77.128s10.117,36.567,10.117,43.824-5.272,15.655-6.129,25.187-2.282,20.775-2.709,28.177-1.424,15.651,3.566,15.651,6.7-16.792,6.837-20.067,1.143-4.979,2.426-5.264,3.988,1.427,3.988,5.975-1.565,5.839-3.135,6.831-1.143,3.7,0,4.983-3.42,4.267-4.559,5.975-.145,3.986-.571,4.412-4.613,3.263-1.31,6.283,15.141-8.523,20.1-12.92,4.128-12.643,6.052-18.139,1.1-7.424,0-12.924-5.23-15.393-5.5-28.865-.826-23.365-2.2-39.583-2.754-40.96-4.129-53.607-1.928-23.365-9.637-37.659-6.056-26.115-5.778-46.186,1.928-53.6-1.1-72.845-13.761-20.619-38.817-27.215c-22.644-5.964-37.309-19.873-39.9-24.917-4-7.79-1.386-21.817-1.386-21.817,4.125-3.024,5.5-17.6,5.5-17.6,6.879,1.377,8.257-7.972,10.185-17.317s-3.577-10.17-3.577-10.17C175.838-1.1,134.469,0,134.469,0S93.1-1.1,97.5,48.936c0,0-5.5.825-3.576,10.17S97.233,77.8,104.112,76.424c0,0,1.379,14.571,5.5,17.6,0,0,2.617,14.027-1.386,21.817-2.594,5.043-17.258,18.953-39.9,24.917-25.055,6.6-35.789,7.972-38.817,27.215s-1.375,52.781-1.1,72.845S30.332,272.7,22.627,287s-8.262,25.016-9.637,37.659-2.75,37.385-4.129,53.607-1.927,26.115-2.2,39.583-4.407,23.365-5.5,28.865-1.928,7.425,0,12.924,1.1,13.742,6.052,18.139S24,493.719,27.308,490.7s-.884-5.857-1.31-6.283.571-2.7-.571-4.412-5.7-4.694-4.559-5.975,1.569-3.986,0-4.983-3.135-2.275-3.135-6.831,2.708-6.257,3.992-5.975,2.278,2,2.422,5.264S26,481.567,30.984,481.567s3.992-8.253,3.566-15.651S32.7,447.271,31.84,437.739s-6.129-17.93-6.129-25.187,2.282-22.483,10.117-43.824S55.422,322.751,61.337,291.6c4.133-21.772,2.994-60.476,2.994-60.476S76.87,259.156,76.87,284.347s-5.13,24.472-13.822,41.69S43.953,361.9,43.953,400.6s7.694,65.458,17.811,101.459A377.323,377.323,0,0,1,75.3,576.336c1.425,15.085-1,38.564-.141,57.2a360.485,360.485,0,0,1-.712,43.828c-.712,8.68,2,36.571,8.978,54.641S96.536,774.7,96.536,792.2a56.893,56.893,0,0,1-2.282,14.514c-.712,2.708.427,6.265.427,8.824a15.986,15.986,0,0,1-5.7,12.381C84,831.9,78.862,836.025,78.862,839.3s3.279,4.123,5.561,3.987a9.15,9.15,0,0,0,8.406,1.278s4.56,1.993,7.268-.141c0,0,5.7,3.271,9.831-.289a13.078,13.078,0,0,0,7.984,2.708c4.841,0,9.119-3.986,9.26-7.687S125.6,828.342,125.6,825.5s1-12.381,1.287-15.51-.857-8.821-2.567-13.092-3.276-11.666-2.994-25.613a357.217,357.217,0,0,1,4.136-44.4c1.851-10.813,4.415-24.9,4.415-40.553s-5.417-39.7-5.417-45.535,4.7-20.916,4.7-26.039-1-42.12-.712-49.374,4.445-72.575,4.445-98.9-3.161-41.4-3.161-41.4a25.5,25.5,0,0,0,4.731.566" transform="translate(-85.901 -96.566)" fill="#fff"/>
    <circle id="Ellipse_19" data-name="Ellipse 19" cx="9.651" cy="9.651" r="9.651" transform="translate(51.722 268.873)" fill="url(#radial-gradient)" style="mix-blend-mode: multiply;isolation: isolate"/>
    <circle id="Ellipse_40" data-name="Ellipse 40" cx="10.111" cy="10.111" r="10.111" transform="translate(38.835 129.159)" fill="url(#radial-gradient)" style="mix-blend-mode: multiply;isolation: isolate"/>
    <circle id="Ellipse_41" data-name="Ellipse 41" cx="10.111" cy="10.111" r="10.111" transform="translate(-18.235 32.646)" fill="url(#radial-gradient)" style="mix-blend-mode: multiply;isolation: isolate"/>
    <circle id="Ellipse_39" data-name="Ellipse 39" cx="9.651" cy="9.651" r="9.651" transform="translate(25.028 268.873)" fill="url(#radial-gradient)" style="mix-blend-mode: multiply;isolation: isolate"/>
    <circle id="Ellipse_19-2" data-name="Ellipse 19" cx="10.111" cy="10.111" r="10.111" transform="translate(19.505 -63.867)" fill="url(#radial-gradient)" style="mix-blend-mode: multiply;isolation: isolate"/>
    <circle id="Ellipse_35" data-name="Ellipse 35" cx="9.651" cy="9.651" r="9.651" transform="translate(76.575 -43.646)" fill="url(#radial-gradient)" style="mix-blend-mode: multiply;isolation: isolate"/>
    <circle id="Ellipse_36" data-name="Ellipse 36" cx="9.651" cy="9.651" r="9.651" transform="translate(42.517 -43.646)" fill="url(#radial-gradient)" style="mix-blend-mode: multiply;isolation: isolate"/>
    <circle id="Ellipse_37" data-name="Ellipse 37" cx="9.651" cy="9.651" r="9.651" transform="translate(42.517 -9.636)" fill="url(#radial-gradient)" style="mix-blend-mode: multiply;isolation: isolate"/>
    <circle id="Ellipse_38" data-name="Ellipse 38" cx="9.651" cy="9.651" r="9.651" transform="translate(42.517 -89.604)" fill="url(#radial-gradient)" style="mix-blend-mode: multiply;isolation: isolate"/>
  </g>
</svg>
