<svg xmlns="http://www.w3.org/2000/svg" width="81" height="81" viewBox="0 0 81 81">
  <g id="gastrointestinal_tract" data-name="gastrointestinal tract" transform="translate(-0.901 -0.9)">
    <path id="Path_805" data-name="Path 805" d="M143.014,375.11a40,40,0,1,1-40-40,40,40,0,0,1,40,40" transform="translate(-61.613 -333.71)" fill="#fff" fill-rule="evenodd"/>
    <path id="Path_806" data-name="Path 806" d="M143.014,375.11a40,40,0,1,1-40-40A40,40,0,0,1,143.014,375.11Z" transform="translate(-61.613 -333.71)" fill="none" stroke="#49c5e0" stroke-width="1"/>
    <path id="Path_810" data-name="Path 810" d="M78.61,369.848a.194.194,0,0,0,.09-.02.223.223,0,0,0,.116-.295c-.034-.081-3.033-7.077-2.989-12.129a2.228,2.228,0,0,1,1.739-.549.227.227,0,0,0,.251-.2.224.224,0,0,0-.2-.249,2.635,2.635,0,0,0-1.776.42,7.941,7.941,0,0,1,.291-1.776.224.224,0,1,0-.428-.129c-1.5,5,2.525,14.389,2.7,14.788a.222.222,0,0,0,.205.134" transform="translate(-53.851 -321.365)" fill="#fff"/>
    <path id="Path_811" data-name="Path 811" d="M83.434,352.829a2.743,2.743,0,0,0-2.984-1.783c-.059-.143-.5-1.013-2.642-1.013a4.123,4.123,0,0,0-1.97.446,1.094,1.094,0,0,1,.612-1.342.223.223,0,1,0-.225-.386,1.539,1.539,0,0,0-.78,1.972,4.15,4.15,0,0,0-1.535,2.813.227.227,0,0,0,.21.239h.015a.227.227,0,0,0,.225-.212A3.5,3.5,0,0,1,75.83,351l.011,0,.026-.02a3.624,3.624,0,0,1,1.939-.492c1.649,0,2.113.554,2.208.7a1.38,1.38,0,0,0-.594,1.312.224.224,0,1,0,.44-.085.991.991,0,0,1,.464-.9c.35-.033,2.284-.14,2.688,1.478l.007.016a.221.221,0,0,0-.01.109.225.225,0,0,0,.256.186,3.114,3.114,0,0,1,3.46,1.985.224.224,0,0,0,.213.151.178.178,0,0,0,.07-.013.223.223,0,0,0,.142-.283,3.509,3.509,0,0,0-3.715-2.305" transform="translate(-54.77 -325.162)" fill="#fff"/>
    <path id="Path_812" data-name="Path 812" d="M99.153,353.818a3.949,3.949,0,0,0-3.88.711c-1.281-1.4-3.878-.522-4.59-.246-1.6-2.354-5.682-.829-5.858-.762a.225.225,0,1,0,.16.42c.041-.016,4.091-1.534,5.413.734a.226.226,0,0,0,.285.091c.031-.015,3.216-1.382,4.383.215a.212.212,0,0,0,.161.09l.018,0a.224.224,0,0,0,.155-.062,3.583,3.583,0,0,1,3.59-.775.224.224,0,0,0,.29-.129.222.222,0,0,0-.127-.29" transform="translate(-48.004 -322.49)" fill="#fff"/>
    <path id="Path_813" data-name="Path 813" d="M100.155,349.806a6.815,6.815,0,0,1,1.854-2.3.224.224,0,1,0-.278-.35,7,7,0,0,0-2.009,2.53,5.571,5.571,0,0,0-.884-.132.228.228,0,0,0-.233.217.224.224,0,0,0,.215.233,4.074,4.074,0,0,1,.575.076,7.68,7.68,0,0,0-2.011,3.061.22.22,0,0,0,.138.283.192.192,0,0,0,.073.013.223.223,0,0,0,.212-.151,7.3,7.3,0,0,1,2.123-3.079,4.067,4.067,0,0,1,1.973,1.2.23.23,0,0,0,.171.08.222.222,0,0,0,.145-.054.228.228,0,0,0,.026-.317,4.455,4.455,0,0,0-2.09-1.317" transform="translate(-40.033 -326.173)" fill="#fff"/>
    <g id="Group_2513" data-name="Group 2513" transform="translate(12.693 13.372)" opacity="0.75">
      <path id="Path_956" data-name="Path 956" d="M10.271,17.363a7.37,7.37,0,0,1,5.754.752,5.457,5.457,0,0,0,1.364-4.63,7.378,7.378,0,0,1-5.124-2.605c-.383-.452.295-1.079.678-.624a6.15,6.15,0,0,0,5.213,2.266,4.124,4.124,0,0,0,3.315-4.908v0c-.951-3.549-3.158-6.3-6.27-7.258C9.6-1.367,3.153,3.371.835,10.916S1.189,26,6.793,27.722c3.114.956,6.488-.084,9.268-2.492a4.128,4.128,0,0,0,.01-5.918,6.151,6.151,0,0,0-5.589-1.052c-.573.16-.779-.737-.211-.9" transform="translate(0 0)" fill="#2e4488"/>
      <path id="Path_957" data-name="Path 957" d="M234.181,193.114a19.6,19.6,0,0,0-.691-4.468,7.141,7.141,0,0,0-5.463-4.877l-.931,3.115a8.894,8.894,0,0,1,2.982,1.16,4.339,4.339,0,0,1,1.458,3.228c.379,3.107.6,6.245.813,9.367.429,6.238-.025-.6.594,19.2l2.481-.457q.02-10.6-.8-21.171-.2-2.55-.447-5.1" transform="translate(-209.029 -173.245)" fill="#2e4488"/>
      <path id="Path_958" data-name="Path 958" d="M467.744,10.916C465.426,3.371,458.982-1.368,453.378.353c-3.112.956-5.319,3.709-6.27,7.258v0a4.124,4.124,0,0,0,3.316,4.908,6.15,6.15,0,0,0,5.213-2.266c.383-.455,1.062.172.678.624a7.378,7.378,0,0,1-5.124,2.605,5.457,5.457,0,0,0,1.364,4.63,7.37,7.37,0,0,1,5.754-.752c.568.16.361,1.057-.211.9a6.151,6.151,0,0,0-5.589,1.052,4.128,4.128,0,0,0,.01,5.918c2.78,2.409,6.154,3.448,9.268,2.492,5.6-1.72,8.275-9.261,5.958-16.806" transform="translate(-411.486 0)" fill="#2e4488"/>
      <path id="Path_959" data-name="Path 959" d="M387.778,188.646a19.594,19.594,0,0,0-.691,4.468q-.249,2.545-.447,5.1-.824,10.565-.8,21.171l2.481.457c.619-19.8.166-12.961.594-19.2.215-3.122.434-6.26.813-9.367a4.339,4.339,0,0,1,1.458-3.228,8.9,8.9,0,0,1,2.982-1.16l-.931-3.115a7.141,7.141,0,0,0-5.463,4.877" transform="translate(-355.146 -173.245)" fill="#2e4488"/>
      <path id="Path_960" data-name="Path 960" d="M249.089,647a6.127,6.127,0,0,0-1.787-4.441c-1.876-1.664-4.57-1.962-7.139-2.252-.407-.046-.911-.061-1.439-.066s-1.032.02-1.439.066c-2.569.29-5.263.589-7.139,2.252A6.127,6.127,0,0,0,228.358,647a8.2,8.2,0,0,0,2.173,6.107A36.339,36.339,0,0,0,235.3,657a6.236,6.236,0,0,1,2.3,4.062h2.253a6.236,6.236,0,0,1,2.3-4.062,36.339,36.339,0,0,0,4.767-3.9A8.2,8.2,0,0,0,249.089,647" transform="translate(-210.177 -599.305)" fill="#2e4488"/>
    </g>
  </g>
</svg>
