<svg xmlns="http://www.w3.org/2000/svg" width="81" height="81" viewBox="0 0 81 81">
  <g id="Female_genital_tract" data-name="Female genital tract" transform="translate(-0.901 -0.901)">
    <path id="Path_906" data-name="Path 906" d="M312.378,375.182a40,40,0,1,1-40-40,40,40,0,0,1,40,40" transform="translate(-230.977 -333.782)" fill="#fff" fill-rule="evenodd"/>
    <path id="Path_907" data-name="Path 907" d="M312.378,375.182a40,40,0,1,1-40-40A40,40,0,0,1,312.378,375.182Z" transform="translate(-230.977 -333.782)" fill="none" stroke="#49c5e0" stroke-width="1"/>
    <path id="Path_951" data-name="Path 951" d="M24.572,53.359H22.859q-.685-2.583-1.366-5.147C20.908,46,20.261,43.8,19.757,41.564A8.531,8.531,0,0,1,21.9,33.6c.48-.531,1.039-.989,1.694-1.606-.427-.356-.78-.6-1.073-.9A4.29,4.29,0,0,1,21.3,28.021c-.011-1.573.015-3.151-.09-4.722a14.743,14.743,0,0,0-3.4-8.4c-.673-.835-1.318-1.7-2.015-2.512A6.425,6.425,0,0,1,19.6,1.82c-.276-.02-.406-.037-.534-.037-3.069,0-6.138-.011-9.209,0A6.2,6.2,0,0,0,8.453,14.038a2.093,2.093,0,0,0,1.9-.372,4.919,4.919,0,0,1,3.3-1.214A4.475,4.475,0,0,1,14.2,21.3a3.875,3.875,0,0,1-3.018-.613A8.178,8.178,0,0,0,7.7,19.293,9.607,9.607,0,0,1,0,9.739,9.707,9.707,0,0,1,7.716.231,10.4,10.4,0,0,1,9.748.014Q27.526,0,45.308.008a9.767,9.767,0,0,1,1.028,19.477,4.557,4.557,0,0,0-1.37.5,15.326,15.326,0,0,1-2.557,1.257,4.27,4.27,0,0,1-5.14-4.066,4.391,4.391,0,0,1,3.572-4.659,4.219,4.219,0,0,1,2.981.571,4.1,4.1,0,0,1,.78.523,2.1,2.1,0,0,0,2.213.376,6.254,6.254,0,0,0,4.659-6.26,6.171,6.171,0,0,0-5.327-5.854,7.379,7.379,0,0,0-.991-.087q-4.576-.009-9.153,0h-.437a7.246,7.246,0,0,1,3.283,1.74,6.318,6.318,0,0,1,.8,8.3c-.867,1.2-1.838,2.323-2.742,3.495a15.116,15.116,0,0,0-3.174,9.111c-.026,1.112-.032,2.225,0,3.337a4.594,4.594,0,0,1-1.5,3.625c-.2.191-.415.367-.783.692.483.414.923.748,1.313,1.132a8.488,8.488,0,0,1,2.7,7.01,24.2,24.2,0,0,1-.844,3.892c-.76,2.951-1.558,5.894-2.341,8.84-.031.124-.074.246-.121.395H30.455c.3-1.138.591-2.256.887-3.374.731-2.767,1.505-5.525,2.179-8.306a7.073,7.073,0,0,0-1.592-6.428,1.778,1.778,0,0,0-.337-.367c-1.253-.85-1.479-2.039-1.439-3.493.1-3.574.04-7.153.025-10.728a3.643,3.643,0,0,1,1.092-2.7c.6-.605,1.215-1.2,1.781-1.832A9.615,9.615,0,0,0,35.5,9.736c.027-1.129.015-2.261,0-3.39a2.679,2.679,0,0,0-2.758-2.783q-5.243-.019-10.485,0A2.559,2.559,0,0,0,19.57,5.982a40.394,40.394,0,0,0,.187,5.541,8.477,8.477,0,0,0,2.467,4.869c.508.537,1.039,1.054,1.559,1.581a3.59,3.59,0,0,1,1.073,2.646c-.009,4.114,0,8.229-.02,12.343a1.368,1.368,0,0,1-.364.852,11.132,11.132,0,0,0-2.512,3.215,7.441,7.441,0,0,0-.385,4.989q1.44,5.41,2.876,10.821c.042.159.074.32.121.52" transform="translate(13.611 17.923)" fill="#2e4488" opacity="0.75"/>
    <path id="Path_952" data-name="Path 952" d="M85.8,19.729c1.548,0,3.041-.014,4.534.009a.731.731,0,0,1,.767.737c-.033,1.9.246,3.82-.254,5.7a7.782,7.782,0,0,1-2.033,3.513c-.457.46-.912.92-1.371,1.377A5.427,5.427,0,0,0,85.8,35.056q-.007,6.532.011,13.063a1.189,1.189,0,0,0,.3.717c.547.6,1.157,1.147,1.706,1.748a5.466,5.466,0,0,1,1.338,5.348c-.993,3.808-2.016,7.608-3.02,11.413-.076.288-.172.441-.509.423-.589-.031-1.18-.009-1.813-.009-.387-1.462-.773-2.9-1.154-4.347-.7-2.643-1.445-5.274-2.066-7.935a5.166,5.166,0,0,1,1.327-4.783c.581-.647,1.231-1.23,1.82-1.871a1.1,1.1,0,0,0,.279-.666q.024-6.59.008-13.176a5.444,5.444,0,0,0-1.651-3.936,27.4,27.4,0,0,1-2.117-2.272A7.351,7.351,0,0,1,78.7,24.125q0-1.665,0-3.335c0-.747.3-1.059,1.027-1.062,1.4,0,2.807,0,4.291,0,0,.941.009,1.86-.011,2.778,0,.112-.144.237-.245.331a1.763,1.763,0,1,0,2.287-.015.821.821,0,0,1-.237-.5c-.028-.7-.012-1.408-.012-2.112ZM84.059,57.045H85.77V53.553H84.059ZM85.753,58.9H84.062v1.733h1.691Z" transform="translate(-43.781 3.54)" fill="#2e4488" opacity="0.75"/>
  </g>
</svg>
