<svg xmlns="http://www.w3.org/2000/svg" width="81" height="81" viewBox="0 0 81 81">
  <g id="Respiratory_tract" data-name="Respiratory tract" transform="translate(-0.898 -0.9)">
    <path id="Path_726" data-name="Path 726" d="M143.118,310.446a40,40,0,1,1-40-40,40,40,0,0,1,40,40" transform="translate(-61.72 -269.046)" fill="#fff" fill-rule="evenodd"/>
    <path id="Path_727" data-name="Path 727" d="M143.118,310.446a40,40,0,1,1-40-40A40,40,0,0,1,143.118,310.446Z" transform="translate(-61.72 -269.046)" fill="none" stroke="#49c5e0" stroke-width="1"/>
    <g id="Group_2608" data-name="Group 2608" transform="translate(14.835 17.372)" opacity="0.75">
      <path id="Path_1007" data-name="Path 1007" d="M99.916,286.07c-1.823-1.657-4.236-3.085-6.755-2.454-4.99,1.247-4.045,13.61-3.538,17.7a5.3,5.3,0,0,0,3.319,4.554c2.229,1.159,4.351,2.343,5.781,4.533,2.258,3.457,5.913,2.34,6.712-1.3,1.632-7.423.306-17.729-5.518-23.024" transform="translate(-51.673 -261.299)" fill="#2e4488"/>
      <path id="Path_1008" data-name="Path 1008" d="M78.789,286.641c1.823-1.657,4.236-3.085,6.755-2.454,4.99,1.247,4.045,13.61,3.538,17.694a5.3,5.3,0,0,1-3.319,4.555c-2.229,1.159-4.351,2.344-5.781,4.534-2.258,3.456-5.913,2.339-6.712-1.3-1.632-7.423-.306-17.729,5.518-23.024" transform="translate(-55.748 -261.158)" fill="#2e4488"/>
      <path id="Path_1009" data-name="Path 1009" d="M87.34,282.343c0,2.078.081,4.159,0,6.237-.044,1.12-1.465,1.228-2.234,1.424l.2,1.993a6.366,6.366,0,0,1,6.021,0l.2-1.993c-.769-.2-2.19-.3-2.234-1.424-.081-2.078,0-4.159,0-6.237Z" transform="translate(-52.68 -261.574)" fill="#2e4488" fill-rule="evenodd"/>
    </g>
    <g id="Group_2466" data-name="Group 2466" transform="translate(12.766 10.43)" opacity="0.75">
      <path id="Path_933" data-name="Path 933" d="M6.139,16.891q.137-.115.271-.247l-.242,1.385a.86.86,0,1,0,1.693.3L9.472,9.117c0-.026.007-.052.01-.078q.137-.676.263-1.4a66.823,66.823,0,0,0,.8-6.729A.86.86,0,1,0,8.825.81c0,.031-.187,3.131-.776,6.536-.744,4.3-1.814,7.224-3.013,8.225C1.961,18.14.588,20,.14,22.222a6.554,6.554,0,0,0,2.129,6.293l1.069-1.347,0,0a4.833,4.833,0,0,1-1.516-4.609c.362-1.791,1.571-3.381,4.313-5.671" transform="translate(0 0)" fill="#2e4488"/>
      <path id="Path_934" data-name="Path 934" d="M514.276,22.223c-.448-2.217-1.82-4.082-4.9-6.651-1.2-1-2.267-3.916-3.01-8.21-.59-3.405-.776-6.52-.778-6.551a.86.86,0,1,0-1.716.1,66.792,66.792,0,0,0,.8,6.729q.125.725.263,1.4c0,.026,0,.052.01.078l1.611,9.209a.86.86,0,1,0,1.693-.3l-.242-1.385q.133.132.271.247c2.742,2.29,3.952,3.88,4.313,5.671a4.832,4.832,0,0,1-1.516,4.609l0,0,1.069,1.347a6.554,6.554,0,0,0,2.129-6.293" transform="translate(-485.785 -0.001)" fill="#2e4488"/>
      <path id="Path_935" data-name="Path 935" d="M136.833,603.611c-1.21,0-2.651,1.531-4.043,3.011l-.151.161a3.278,3.278,0,0,1-2.169,1.164h.006l-.008.859-.008-.859h.006a3.277,3.277,0,0,1-2.169-1.164l-.152-.161c-1.393-1.48-2.833-3.011-4.043-3.011a2.635,2.635,0,0,0-2.207,1.211,1.668,1.668,0,0,0-.194,1.24c.248,1,1.231,2.5,5.032,1.414a.569.569,0,0,0,.077-.028c.16.168.316.333.463.49l.152.162a4.48,4.48,0,0,0,3.034,1.565h.015a4.48,4.48,0,0,0,3.034-1.565l.152-.161c.148-.157.3-.322.464-.49a.568.568,0,0,0,.077.028,8.547,8.547,0,0,0,2.324.378c1.916,0,2.521-1.042,2.708-1.793a1.668,1.668,0,0,0-.194-1.24,2.635,2.635,0,0,0-2.207-1.211" transform="translate(-116.152 -581.01)" fill="#2e4488"/>
    </g>
  </g>
</svg>
