<svg xmlns="http://www.w3.org/2000/svg" width="81" height="81" viewBox="0 0 81 81">
  <g id="Brain" transform="translate(-0.901 -1.901)">
    <path id="Path_1005" data-name="Path 1005" d="M227.967,180.2a40,40,0,1,1-40-40,40,40,0,0,1,40,40" transform="translate(-146.566 -137.798)" fill="#fff" fill-rule="evenodd"/>
    <path id="Path_1006" data-name="Path 1006" d="M227.967,180.2a40,40,0,1,1-40-40A40,40,0,0,1,227.967,180.2Z" transform="translate(-146.566 -137.798)" fill="none" stroke="#49c5e0" stroke-width="1"/>
    <g id="Group_2607" data-name="Group 2607" opacity="0.75">
      <path id="Path_991" data-name="Path 991" d="M187.259,165.231a2.416,2.416,0,0,0-.835-.252,2.9,2.9,0,0,0-.3-.015,3.225,3.225,0,0,0-1.127.2,2.282,2.282,0,0,1,.228-.539,2.154,2.154,0,0,1,.785-.589c.055-.031.109-.062.161-.094.068-.042.135-.083.207-.119a8.261,8.261,0,0,0,.772-.436c.008.117.021.234.033.348a6.326,6.326,0,0,1,.046.645c0,.3.01.581.029.853" transform="translate(-123.307 -124.235)" fill="#2e4488"/>
      <path id="Path_992" data-name="Path 992" d="M184.21,171.542a3.108,3.108,0,0,1,.011-.428c.01-.083.028-.173.046-.256.023-.117.046-.233.057-.348a4.741,4.741,0,0,0-.015-.7c-.055-.742-.057-1.172.552-1.374a2.976,2.976,0,0,0,1.167-.593,3.193,3.193,0,0,0,.293-.342c.049-.06.1-.12.147-.181l.044-.049a1.453,1.453,0,0,0,.3-.469,1.714,1.714,0,0,0-.026-1.491.786.786,0,0,0-.646-.288.312.312,0,0,0-.324.291.317.317,0,0,0,.3.332c.09.008.109.037.117.05a1.015,1.015,0,0,1-.083.731,1.841,1.841,0,0,1-.311.446c-.039.05-.078.1-.116.15s-.072.094-.1.132a.584.584,0,0,1-.344-.164,1.057,1.057,0,0,1-.314-.622,2.959,2.959,0,0,1-.034-.811,4.612,4.612,0,0,1,.143-.723c.031-.125.062-.249.088-.378a3.188,3.188,0,0,0-.2-2.1,2.359,2.359,0,0,0-1.753-1.149c-.376-.06-.783-.14-1.242-.249a3.236,3.236,0,0,1-.935-.322,1.435,1.435,0,0,1-.672-1.366,2.875,2.875,0,0,1,.345-.76,5.347,5.347,0,0,0,.262-.492.705.705,0,0,1,.132-.086.894.894,0,0,1,.347-.072.969.969,0,0,1,.265.039,3.137,3.137,0,0,0,.868.146,2.17,2.17,0,0,0,.371-.033,2.569,2.569,0,0,0,1.213-.594,3,3,0,0,0,.036.908,2.482,2.482,0,0,0,.773,1.439,2.137,2.137,0,0,0,.777.414,1.126,1.126,0,0,1,.653.42,1.46,1.46,0,0,1,.309.8c0,.15,0,.306-.011.459l0,.1c-.044.161-.083.318-.12.469-.2.845-.044,1.387.469,1.61a1.6,1.6,0,0,0,.63.129,2.91,2.91,0,0,0,1.815-.834,5.38,5.38,0,0,0,.767-.786,3.236,3.236,0,0,1,.335,2.62,3.613,3.613,0,0,1-.8.9c-.085.067-.158.13-.23.194a2.389,2.389,0,0,1-.684.469,7.415,7.415,0,0,0-.718.344,3.1,3.1,0,0,0-1.218,1.88c-.331.951-.641,1.85-1.793,2.2a6.646,6.646,0,0,0-.943.381" transform="translate(-126.234 -127.977)" fill="#2e4488"/>
      <path id="Path_993" data-name="Path 993" d="M194.4,165.7a1.9,1.9,0,0,1-.124.217,4.219,4.219,0,0,1-.711.762,3.756,3.756,0,0,1-.847.6,1.569,1.569,0,0,1-.58.153.288.288,0,0,1-.182-.049c-.174-.153-.051-.567.026-.838,0,0,.042-.143.05-.186a4.819,4.819,0,0,1,.389-1.034c.037-.067.073-.134.111-.2a3.614,3.614,0,0,0,.329-.7.335.335,0,0,0-.057-.306.376.376,0,0,0-.287-.135.353.353,0,0,0-.254.1,2.937,2.937,0,0,0-.482.633.835.835,0,0,0-.052-.13,1.9,1.9,0,0,0-.518-.7,1.925,1.925,0,0,0-.571-.288c-.068-.023-.137-.049-.208-.078a1.557,1.557,0,0,1-.855-1.206,1.717,1.717,0,0,1-.063-.488,1.206,1.206,0,0,1,.02-.151,2.464,2.464,0,0,0,.024-.319,1.9,1.9,0,0,0-.169-.85,2.191,2.191,0,0,0-.028-1.672c-.033-.07-.067-.15-.1-.23-.248-.583-.585-1.381-1.416-1.581l-.018,0-.062,0a.357.357,0,0,0-.306.181.31.31,0,0,0,.034.342,3.278,3.278,0,0,0,.345.334,1.288,1.288,0,0,1,.4.453c.026.063.049.127.072.194l.015.041c.034.09.068.186.111.275l.06.134a2.376,2.376,0,0,1,.135.332,1.641,1.641,0,0,1-.453,1.5,1.563,1.563,0,0,1-.7.427,1.511,1.511,0,0,1-.409.052,4.227,4.227,0,0,1-.549-.049l-.07-.011a2.522,2.522,0,0,0-.3-.02,2.753,2.753,0,0,0-.428.037,2.566,2.566,0,0,0-.295-1.516.3.3,0,0,0-.264-.155.336.336,0,0,0-.236.1.31.31,0,0,0-.07.254l.023.106a2.855,2.855,0,0,1,.073.506,3.439,3.439,0,0,1-.078,1.006,3.369,3.369,0,0,1-.386.822,3.149,3.149,0,0,0-.269.576,1.692,1.692,0,0,0-1.092-.552.809.809,0,0,0-.207.026.308.308,0,0,0-.02.6c.07.026.143.041.21.06a.9.9,0,0,1,.249.08,1.752,1.752,0,0,1,.36.233,2.316,2.316,0,0,1,.414.42,2.01,2.01,0,0,0,.106.431,2.305,2.305,0,0,0,1.3,1.4,6.036,6.036,0,0,0,1.143.337c.177.037.355.063.528.09.22.034.433.068.628.114a1.77,1.77,0,0,1,.891.523,1.414,1.414,0,0,1,.29.892,3.68,3.68,0,0,1-.147,1.1,4.72,4.72,0,0,0-.168,1.112,2.335,2.335,0,0,0,.458,1.628,1.914,1.914,0,0,0,.254.233c-.065.023-.428.137-.428.137a1.4,1.4,0,0,0-.876.674,2.208,2.208,0,0,0-.194,1.071c0,.143.024.29.037.43a2.583,2.583,0,0,1,.023.64,6.04,6.04,0,0,0-.086,1.2.708.708,0,0,1-.166.427,5.228,5.228,0,0,0-.772.876,3.511,3.511,0,0,1-1.309,1.229.916.916,0,0,1-.344.078,1.1,1.1,0,0,1-.251-.037,1.2,1.2,0,0,0-.332-.054.907.907,0,0,0-.249.042,1.356,1.356,0,0,0-.394.189c-.869.6-1.246.668-1.449.668a1.273,1.273,0,0,1-.3-.041.19.19,0,0,1-.042-.007,2.819,2.819,0,0,0,.208-.306,5.363,5.363,0,0,0,.435-.9,3.85,3.85,0,0,0,.295-1.845,1.8,1.8,0,0,0-.295-.8l.05-.116a.931.931,0,0,1,.366-.4,1.969,1.969,0,0,1,.573-.308,2.527,2.527,0,0,1,.474-.059l.223-.011c.073-.007.148-.016.22-.016a.4.4,0,0,1,.189.031,1.508,1.508,0,0,1,.409.316,2.529,2.529,0,0,1,.334.51c.07.132.143.26.226.389a.315.315,0,0,0,.458.046.286.286,0,0,0,.083-.223,2.05,2.05,0,0,0-.671-1.46,1.563,1.563,0,0,0-.775-.381,1.684,1.684,0,0,0-.264-.02,4.174,4.174,0,0,0-.506.041l-.119.013a1.659,1.659,0,0,0-.8.324l-.19.125a2.577,2.577,0,0,0-.5.366,1.331,1.331,0,0,0-.249.348,1.509,1.509,0,0,0-.847-.26,1.65,1.65,0,0,0-.531.09,3.147,3.147,0,0,0-.9.519c-.117.083-.23.169-.353.249a1.661,1.661,0,0,1-.749.269l-.365.028a3.358,3.358,0,0,0-.339.036.316.316,0,0,0,0,.625,2.745,2.745,0,0,0,.471.042c.054,0,.1-.008.156-.011l.067-.008a3.01,3.01,0,0,0,.7-.125,2.884,2.884,0,0,0,.835-.477l.166-.12a1.492,1.492,0,0,1,.817-.334.6.6,0,0,1,.326.1,1.047,1.047,0,0,1,.446.869,3.561,3.561,0,0,1-.228,1.2l-.055.16a3.741,3.741,0,0,1-.388.808,3.483,3.483,0,0,1-.721.791c-.044.034-.091.072-.14.106a6.558,6.558,0,0,1-.847.511.318.318,0,0,0-.1.072,1.2,1.2,0,0,1-.378.1c-.033,0-.075,0-.116,0-.14,0-.3-.015-.449-.026s-.252-.023-.353-.033l-.182-.007c-.184-.011-.355-.021-.521-.021-.083,0-.182,0-.283.013a.7.7,0,0,0-.243-.046,1.54,1.54,0,0,0-.7.239,2.846,2.846,0,0,1-1.4.4,2.032,2.032,0,0,1-.969-.226,1.358,1.358,0,0,1-.6-.594v0a.974.974,0,0,1-.117-.466.985.985,0,0,1,.008-.117l.015-.091-.064-.065a1.33,1.33,0,0,1-.3-.495.633.633,0,0,1,.238-.129,1.475,1.475,0,0,1,.389-.06.744.744,0,0,1,.265.042.955.955,0,0,1,.44.378l.041.049a2.257,2.257,0,0,0,2,1.086,3.093,3.093,0,0,0,.866-.129.281.281,0,0,0-.086-.552l-.156,0c-.124,0-.251.007-.374.007a1.6,1.6,0,0,1-1.249-.379,2.761,2.761,0,0,1-.295-.417,4.027,4.027,0,0,0-.327-.462,1.9,1.9,0,0,0,.464-.379,2.023,2.023,0,0,0,.415-.773l.046-.137a.783.783,0,0,1,.288-.379l.062-.049a1.713,1.713,0,0,0,.259-.238.3.3,0,0,0,.034-.34.355.355,0,0,0-.313-.182l-.042,0a1.331,1.331,0,0,0-.9.558,2.131,2.131,0,0,0-.213.5l-.036.12a.867.867,0,0,1-.156.306,1.635,1.635,0,0,1-.767.514,1.427,1.427,0,0,0-.187-.011,1.735,1.735,0,0,0-.8.212c0-.158.016-.314.029-.467s.02-.33.02-.49a1.424,1.424,0,0,0,0-.143c-.008-.427-.015-.809-.024-1.153-.013-.462-.026-.861-.016-1.192a3.261,3.261,0,0,1,.083-.755.111.111,0,0,1,.02.02,2.457,2.457,0,0,0,1.736.664.316.316,0,0,0,.327-.234.283.283,0,0,0-.037-.216.245.245,0,0,0-.14-.12c-.137-.06-.283-.112-.423-.16s-.278-.093-.4-.147a1.725,1.725,0,0,1-.641-.472c-.016-.02-.028-.034-.044-.05.05-.176-.086-.357-.176-.467a1.093,1.093,0,0,1-.124-.179c0-.392.044-.8.08-1.188.031-.293.062-.593.077-.892a3.051,3.051,0,0,0,1.245.508,5.99,5.99,0,0,0,1.024.078c.428,0,.858-.034,1.278-.067s.843-.07,1.255-.07c.07,0,.134,0,.2,0a3.829,3.829,0,0,1,1.784.431c.213.117.462.269.508.44s-.106.309-.241.407a3.8,3.8,0,0,1-.917.443,4.406,4.406,0,0,0-.995.472,3.209,3.209,0,0,0-.344.29.891.891,0,0,1-.609.332,1.034,1.034,0,0,1-.117-.01.385.385,0,0,0-.065-.007.439.439,0,0,0-.435.383.391.391,0,0,0,.337.414,2.414,2.414,0,0,0,.314.024,1.364,1.364,0,0,0,.832-.264,2.808,2.808,0,0,0,.3-.272c.083-.078.151-.148.23-.208a2.877,2.877,0,0,1,.734-.357l.151-.059c.575-.22,1.361-.523,1.609-1.171.018-.052.033-.106.046-.16a2.282,2.282,0,0,1,1.206.21l.073.044a4.253,4.253,0,0,0,.946.5,4.592,4.592,0,0,0,1.446.287,2.229,2.229,0,0,0,.808-.14,2.65,2.65,0,0,0,1.356-1.55,6.07,6.07,0,0,0,.37-1.062l.016-.065a1.827,1.827,0,0,0,.063-.847.337.337,0,0,0-.344-.283.329.329,0,0,0-.319.223,3.372,3.372,0,0,0-.109.475c-.028.13-.046.254-.083.371a5.6,5.6,0,0,1-.355.941c-.243.493-.542,1.026-1.075,1.123a1.722,1.722,0,0,1-.322.026,2.16,2.16,0,0,1-.593-.083,3.976,3.976,0,0,1-1-.374c-.067-.041-.13-.083-.2-.124a2.286,2.286,0,0,0-.863-.394,6.308,6.308,0,0,0-1.1-.088l-.112,0a2.376,2.376,0,0,0-1.037-.726l.16-.08a2.823,2.823,0,0,0,1.226-1.241,1.231,1.231,0,0,0,.321-.56.715.715,0,0,1,.212-.378,1.279,1.279,0,0,1,.746-.238.929.929,0,0,1,.6.2,1.977,1.977,0,0,1,.5.786l.073.169a1.23,1.23,0,0,0,1.013.768l.041,0a.28.28,0,0,0,.1-.545c-.347-.116-.446-.361-.583-.705a3.6,3.6,0,0,0-.173-.4,1.877,1.877,0,0,0-1.159-.972.367.367,0,0,0-.073-.016,1.422,1.422,0,0,0,.278-.957.988.988,0,0,0-.492-.676l-.05-.039a1.057,1.057,0,0,1-.5-.707.3.3,0,0,0-.3-.249.293.293,0,0,0-.205.078.272.272,0,0,0-.086.215,1.337,1.337,0,0,0,.313.8,2.258,2.258,0,0,0,.3.291,1.58,1.58,0,0,1,.265.272c.1.177-.049.469-.262.663-.05.039-.106.083-.169.125a1.32,1.32,0,0,0-.368.327,1.49,1.49,0,0,0-.415.265,1.581,1.581,0,0,0-.177.194,1.5,1.5,0,0,0-.723-.436,2.426,2.426,0,0,0-.374-.067c-.234-.031-.492-.067-.568-.182a1.561,1.561,0,0,1-.16-.37,2.366,2.366,0,0,0-.112-.3.371.371,0,0,0-.7.1,1.325,1.325,0,0,0,.707,1.389,1.94,1.94,0,0,0,.586.14,1.744,1.744,0,0,1,.371.072c.094.033.415.166.464.405.1.449-.464.946-.839,1.149a2.929,2.929,0,0,1-.863.332c-.093.015-.169.026-.243.031a5.506,5.506,0,0,0-.747-.046c-.436,0-.869.037-1.289.072-.4.033-.843.072-1.268.072-.155,0-.3,0-.438-.015a2.565,2.565,0,0,1-1.54-.537.6.6,0,0,1-.106-.176c-.026-.044-.049-.09-.072-.135a.977.977,0,0,1-.059-.1,2.41,2.41,0,0,0,.8-1.272c.177-.506.332-.939.824-1.156a2.284,2.284,0,0,1,.9-.13l.427,0a4.673,4.673,0,0,0,.479-.021,1.626,1.626,0,0,0,.816-.265,1.73,1.73,0,0,0,.374-.42c.033-.049.068-.1.109-.146a.273.273,0,0,0,.023-.309.3.3,0,0,0-.265-.153.313.313,0,0,0-.181.057,2.743,2.743,0,0,0-.243.217.89.89,0,0,1-.427.275,2.747,2.747,0,0,1-.646.06h-.176l-.23-.006c-.117,0-.231-.008-.347-.008a2.15,2.15,0,0,0-1.245.308,2.78,2.78,0,0,0-.646.62,2.032,2.032,0,0,0-.306.6l-.037.1a2.8,2.8,0,0,0-.1.291,2.835,2.835,0,0,1-.174.454c.011-.166.024-.358.024-.571a15.58,15.58,0,0,0-.124-1.656c-.036-.322-.075-.651-.1-.985h.044l0-.19a1.9,1.9,0,0,1,.155-.64,4.279,4.279,0,0,1,.658-1.169,1.34,1.34,0,0,1,.889-.6,1.076,1.076,0,0,1,.122-.008c.445,0,.733.363.99.736a1.624,1.624,0,0,0,1.369.77,1.507,1.507,0,0,0,.192-.013,5.259,5.259,0,0,0,.588-.1,3.78,3.78,0,0,1,.759-.106,1.394,1.394,0,0,1,.309.029c.353.068.513.234.536.557.021.295.026.606.029.9l.008.3a.3.3,0,0,0,.6,0,4.315,4.315,0,0,1,.073-.518,2.432,2.432,0,0,0,.026-1.109,1.169,1.169,0,0,0-.409-.615,2.166,2.166,0,0,1,.28-.031c.114-.013.177-.02.212-.026a4.518,4.518,0,0,0,.628-.223,2.323,2.323,0,0,0,1.088-.957,3.2,3.2,0,0,0,.383-1.218c.023-.186.037-.383.047-.606v-.041a1.205,1.205,0,0,0-.01-.262.415.415,0,0,0-.09-.2.349.349,0,0,0-.308-.179.341.341,0,0,0-.313.19.482.482,0,0,0-.1.256v.213c-.007.212-.015.371-.028.514a2.342,2.342,0,0,1-.334,1.027,1.434,1.434,0,0,1-.379.4,1.4,1.4,0,0,1-.35.169,3.336,3.336,0,0,0-.314.137,1.108,1.108,0,0,1-.2.063c-.272.072-.65.176-.712.5l0,.02a2.438,2.438,0,0,0-.684-.086,5.59,5.59,0,0,0-1.169.147,1.806,1.806,0,0,1-.373.054.552.552,0,0,1-.249-.054,1.164,1.164,0,0,1-.43-.423c-.036-.049-.075-.1-.112-.15a1.966,1.966,0,0,0-1.384-.886c-.049,0-.1,0-.151,0a2.194,2.194,0,0,0-1.77.99c.031-.309.047-.609.047-.907a3.055,3.055,0,0,0-.07-.583,2.279,2.279,0,0,1-.06-.459,8.146,8.146,0,0,1,.037-.83,1.454,1.454,0,0,1,.479-.571,2.663,2.663,0,0,1,1.016-.414,4.237,4.237,0,0,1,.83-.109,1.635,1.635,0,0,1,.352.039,2.322,2.322,0,0,1,1.018.526,4.059,4.059,0,0,1,.438.449c.114.122.228.251.353.366a2.991,2.991,0,0,0,2.185.767.323.323,0,0,0,.331-.275.313.313,0,0,0-.251-.344c-.091-.023-.191-.046-.29-.068a3.791,3.791,0,0,1-.959-.295,2.719,2.719,0,0,1-.7-.632l-.166-.189c-.075-.083-.155-.163-.234-.239a2.937,2.937,0,0,0,.58-.09,3.915,3.915,0,0,0,1.081-.5c.088-.052.171-.1.257-.15l.034-.02a1.677,1.677,0,0,1,.668-.269c.088,0,.179-.008.27-.008a2.325,2.325,0,0,1,.238.008,1.423,1.423,0,0,1,.6.132.549.549,0,0,0,.316.125.3.3,0,0,0,.086-.011.286.286,0,0,0,.226-.283.29.29,0,0,0-.166-.257.422.422,0,0,0-.078-.073,2.872,2.872,0,0,0-.262-.14,2.94,2.94,0,0,0-.632-.173,2.151,2.151,0,0,0-.407-.037,2.705,2.705,0,0,0-.9.166,4.51,4.51,0,0,0-.672.326,3.488,3.488,0,0,1-.707.324,3.366,3.366,0,0,1-.905.1c-.134,0-.27-.007-.407-.01s-.223-.007-.326-.007a2.938,2.938,0,0,1-.58-.046,1.41,1.41,0,0,0-.309-.031c-.037,0-.083,0-.137,0a5.272,5.272,0,0,0-1.213.181c.029-.078.06-.151.086-.223a9.772,9.772,0,0,0,.378-1.384,3.7,3.7,0,0,0,.106-1.14,2.542,2.542,0,0,0,.949-.223,2.238,2.238,0,0,0,1.011-.9,3.209,3.209,0,0,1,.821-.933c.234-.174.721-.534.586-1.1a1.64,1.64,0,0,0-.583-.964.32.32,0,0,0-.173-.049.332.332,0,0,0-.273.147.318.318,0,0,0,0,.322l.06.094a1.461,1.461,0,0,1,.275.643c-.013.138-.2.269-.373.392-.08.059-.16.109-.233.169a3.323,3.323,0,0,0-.58.694,2,2,0,0,1-.746.749,1.651,1.651,0,0,1-.676.16,1.045,1.045,0,0,1-.876-.443,4.453,4.453,0,0,1-.28-.451c-.072-.129-.137-.246-.212-.358l-.052-.083a.622.622,0,0,0-.059-.076,2.2,2.2,0,0,1,1.114-1.216,8.147,8.147,0,0,1,3.282-.79,5.2,5.2,0,0,1,3.136,1,1.5,1.5,0,0,0,.729.34c.057,0,.114,0,.177-.007.037,0,.077,0,.114,0a1.524,1.524,0,0,1-.168.254,3.4,3.4,0,0,1-1.353.882,2.934,2.934,0,0,1-.922.2l-.23.006a4.623,4.623,0,0,0-.71.07.305.305,0,0,0-.254.287.323.323,0,0,0,.231.318,3.108,3.108,0,0,0,.8.122,3.712,3.712,0,0,0-.668.892l-.021.049a2.011,2.011,0,0,0-.262.9.326.326,0,0,0,.329.306.338.338,0,0,0,.269-.132,2.131,2.131,0,0,0,.29-.586,2.263,2.263,0,0,1,.182-.41,3.833,3.833,0,0,1,.663-.749,3.151,3.151,0,0,1,.62-.4c.1-.054.2-.106.29-.163l.057-.031a1.819,1.819,0,0,0,.4-.269,2.727,2.727,0,0,0,1.21-1.117.554.554,0,0,0,.026-.054l.039.044.055.08h.1a7.534,7.534,0,0,1,.775-.046,3.618,3.618,0,0,1,3.608,2.157c.016.029.029.06.046.086-.046.044-.093.093-.137.143a1.077,1.077,0,0,1-.3.029c-.08,0-.166,0-.267-.01a3.854,3.854,0,0,1-.746-.156,5.44,5.44,0,0,0-1.478-.272h-.176a4.889,4.889,0,0,0-1.386.163,1.844,1.844,0,0,0-1.117.682.312.312,0,0,0,0,.327.341.341,0,0,0,.287.151.38.38,0,0,0,.14-.026,3.638,3.638,0,0,0,.327-.179,3.035,3.035,0,0,1,.309-.166,2.67,2.67,0,0,1,.646-.173,5.888,5.888,0,0,1,.912-.077,2.944,2.944,0,0,1,.627.059,5.082,5.082,0,0,1,.539.143,4.319,4.319,0,0,0,.978.21c.037,0,.08,0,.117,0a2.819,2.819,0,0,0-.215.386,1.415,1.415,0,0,0-.177,1.048.328.328,0,0,0,.317.226.342.342,0,0,0,.317-.215,2.7,2.7,0,0,0,.094-.308,2.433,2.433,0,0,1,.1-.3,3.533,3.533,0,0,1,.293-.532,3.012,3.012,0,0,1,.43-.49c.041-.042.081-.083.12-.127a15.411,15.411,0,0,1,2.434,1.669,9.482,9.482,0,0,1,1.159,1.156,7.117,7.117,0,0,1,1.338,2.372l-.083,0c-.1-.008-.189-.011-.283-.011a1.584,1.584,0,0,0-.58.094,2.324,2.324,0,0,0-.72.586l-.125.129a.311.311,0,0,0-.055.36.329.329,0,0,0,.3.194.4.4,0,0,0,.13-.031,1.8,1.8,0,0,0,.4-.3,2.671,2.671,0,0,1,.357-.28,1.573,1.573,0,0,1,.4-.052c.039,0,.077,0,.116,0,.055,0,.109.011.158.016.132.013.249.026.361.026.039,0,.08,0,.119-.008a5.646,5.646,0,0,1,1.1,4.288" transform="translate(-130.787 -132.059)" fill="#2e4488"/>
      <path id="Path_994" data-name="Path 994" d="M182.695,179.338a4.862,4.862,0,0,1-4.227-3s-.034-.1-.044-.129a.8.8,0,0,1,.059-.145,1.487,1.487,0,0,1,.182-.249,1.459,1.459,0,0,1,.179-.164c.181-.134.373-.262.56-.386l.034-.021c.179-.117.365-.241.541-.368a2.746,2.746,0,0,1,.557-.347,3.063,3.063,0,0,1,.54-.151l.163-.036a2.387,2.387,0,0,0,1.258-.594,2.188,2.188,0,0,0,.344-.516,1.533,1.533,0,0,1,.322-.461.471.471,0,0,1,.332-.106,2.315,2.315,0,0,1,.451.062,3.688,3.688,0,0,0,.458.067c.057,0,.114,0,.169,0a6.214,6.214,0,0,0,.71-.054,4.966,4.966,0,0,1,.64-.054c.037,0,.073,0,.107,0a1.973,1.973,0,0,1,.409.052.926.926,0,0,1,.173.055c.088.041.116.063.086.239-.007.041-.015.086-.026.13l-.008.041a.294.294,0,0,0,.065.252.325.325,0,0,0,.239.107.3.3,0,0,0,.234-.12.237.237,0,0,0,.059-.1.93.93,0,0,0-.435-1.236,1.791,1.791,0,0,0-.72-.156c-.05,0-.077,0-.1,0a6.008,6.008,0,0,0-.6.039c-.112.011-.2.02-.283.026-.129.01-.247.015-.363.015a3.571,3.571,0,0,1-.65-.057l-.112-.023a2.754,2.754,0,0,0-.539-.073,1.126,1.126,0,0,0-.228.023,1.562,1.562,0,0,0-1.053.9l-.044.077a1.231,1.231,0,0,1-.368.462,1.879,1.879,0,0,1-.643.186l-.171.029a3.542,3.542,0,0,0-1.539.684c-.142.106-.295.2-.456.3-.107.067-.215.137-.321.21a3.314,3.314,0,0,0-.567.458,2.793,2.793,0,0,1-.228-.164,4.714,4.714,0,0,1-1.392-2.382c-.06-.181-.116-.352-.176-.51.021,0,.041,0,.062,0,.088,0,.187,0,.306.01a3.237,3.237,0,0,1,.488.09,2.915,2.915,0,0,0,.677.1,1.258,1.258,0,0,0,.391-.063c.031-.01.05-.015.067-.021a3.09,3.09,0,0,0,.9-.6l.028-.026c.2-.176.389-.345.516-.348h0a1.3,1.3,0,0,1,.459.111,1.737,1.737,0,0,0,.624.147,1.08,1.08,0,0,0,.278-.036,2.36,2.36,0,0,0,.866-.542,2.646,2.646,0,0,1,.443-.335.3.3,0,0,1,.15-.041,1.12,1.12,0,0,1,.264.049,2,2,0,0,0,.547.083,1.8,1.8,0,0,0,.547-.091l.046-.013a3.97,3.97,0,0,0,1.843-1.773,5.624,5.624,0,0,1,.446-.628,1.289,1.289,0,0,0,.151-.124,4.047,4.047,0,0,1,1.112-.41,3.827,3.827,0,0,0,1.5-.637,3.663,3.663,0,0,0,1.088-1.547,1.341,1.341,0,0,0,.311-.36c.112-.164.181-.259.324-.29a1.585,1.585,0,0,1,.379-.041,3.448,3.448,0,0,1,.79.112,1.665,1.665,0,0,1,.85.431,2.1,2.1,0,0,1,.208.264c.039.171.077.331.112.485a5.526,5.526,0,0,1,.205,1.4,3.291,3.291,0,0,1-.6,1.758,4.639,4.639,0,0,0-.288.527,1.732,1.732,0,0,1-.274-.023,2.833,2.833,0,0,1-1.136-.549,5.364,5.364,0,0,0-.808-.475,1.946,1.946,0,0,0-.77-.143,4.253,4.253,0,0,0-1.46.311,4.111,4.111,0,0,0-1.052.6l-.145.107a2.433,2.433,0,0,0-.622.567.311.311,0,0,0-.016.342.356.356,0,0,0,.306.166.381.381,0,0,0,.215-.067l.117-.083a5.167,5.167,0,0,1,1.832-1.034,2.958,2.958,0,0,1,.847-.155,1.093,1.093,0,0,1,.313.041,2.113,2.113,0,0,1,.628.348c.08.057.15.106.22.151s.145.1.217.153l.033.024a2.557,2.557,0,0,0,.809.451,2.889,2.889,0,0,0,.725.107,4.479,4.479,0,0,1,.414,1.7c0,2.115-.917,2.382-1.526,2.559a1.513,1.513,0,0,0-.435.171.943.943,0,0,1-.034-.12,4.217,4.217,0,0,1-.072-.536c-.02-.173-.033-.316-.057-.458a1.5,1.5,0,0,0-.357-.835,1.25,1.25,0,0,0-.925-.383,1.9,1.9,0,0,0-.9.244.341.341,0,0,0-.181.4.387.387,0,0,0,.376.269l.055,0a2.585,2.585,0,0,0,.342-.08,1.44,1.44,0,0,1,.37-.077.258.258,0,0,1,.184.065,1.007,1.007,0,0,1,.262.724l0,.057a2.488,2.488,0,0,0,.373,1.353,9.644,9.644,0,0,1-2.333,2.063,3.074,3.074,0,0,1-1.5.449,2.284,2.284,0,0,1-1.076-.285c-.072-.16-.16-.327-.252-.5-.077-.14-.156-.285-.215-.415.042-.026.085-.054.124-.081a3.411,3.411,0,0,0,.944-1.293l.031-.063c.049-.093.093-.187.138-.28a2.792,2.792,0,0,1,.671-1,.3.3,0,0,0,.09-.35.333.333,0,0,0-.309-.2.338.338,0,0,0-.2.065,3.481,3.481,0,0,0-.978,1.268c-.086.161-.189.324-.287.479l-.137.218-.055.091a1.207,1.207,0,0,1-.365.446,1.729,1.729,0,0,1-.778.267c-.047,0-.094,0-.142,0-.132,0-.264-.008-.394-.015-.107-.006-.213-.013-.322-.015h-.055a3.787,3.787,0,0,0-1.739.433c-.275.168-.29.334-.254.441a.3.3,0,0,0,.306.2,1.639,1.639,0,0,0,.42-.083l.174-.052a2.971,2.971,0,0,1,.7-.158c.088,0,.176-.008.262-.008.176,0,.345.01.524.018.1,0,.174.007.249.007a3.189,3.189,0,0,0,.643-.059,3.675,3.675,0,0,0,.244.484,2.576,2.576,0,0,1,.264.56,2.218,2.218,0,0,1-1.929,1.026" transform="translate(-128.791 -123.338)" fill="#2e4488"/>
      <path id="Path_995" data-name="Path 995" d="M173.253,156.773a1.185,1.185,0,0,0-.116-.3c-.054-.1-.085-.171-.067-.218a10.187,10.187,0,0,0,.116-3.248V153c.044.06.091.12.142.177a1.991,1.991,0,0,0,.85.578c-.008.086-.011.174-.013.26a1.741,1.741,0,0,1-.039.414c-.018.077-.041.148-.062.223l-.01.041c-.039.142-.075.264-.1.386l-.033.133a4.236,4.236,0,0,1-.4,1.189,1.953,1.953,0,0,1-.262.374" transform="translate(-130.803 -130.76)" fill="#2e4488"/>
      <path id="Path_996" data-name="Path 996" d="M168.923,179.338A2.21,2.21,0,0,1,167,178.319a2.436,2.436,0,0,1,.265-.568,3.781,3.781,0,0,0,.243-.482,3.194,3.194,0,0,0,.645.059c.072,0,.147,0,.22,0,.208-.01.378-.02.552-.02.088,0,.174,0,.26.008a3,3,0,0,1,.7.158l.171.052a1.652,1.652,0,0,0,.42.083.3.3,0,0,0,.308-.2c.036-.109.02-.274-.254-.443a3.787,3.787,0,0,0-1.739-.433h-.054c-.109,0-.218.01-.324.015-.129.007-.262.015-.392.015-.049,0-.094,0-.143,0a1.716,1.716,0,0,1-.777-.267,1.242,1.242,0,0,1-.368-.451l-.187-.3c-.1-.156-.2-.319-.29-.485-.068-.129-.14-.257-.212-.379a2.907,2.907,0,0,0-.765-.887.358.358,0,0,0-.2-.065.33.33,0,0,0-.308.2.3.3,0,0,0,.086.352,2.516,2.516,0,0,1,.6.85l.08.163c.042.091.086.181.13.27l.036.068a3.393,3.393,0,0,0,.941,1.289c.039.028.083.055.124.081-.054.122-.127.259-.205.4-.1.19-.189.352-.259.506a2.249,2.249,0,0,1-1.086.293,2.9,2.9,0,0,1-1.25-.318,8.971,8.971,0,0,1-2.579-2.188,2.32,2.32,0,0,0,.451-1.442l0-.065a1.006,1.006,0,0,1,.265-.723.26.26,0,0,1,.186-.067,1.487,1.487,0,0,1,.363.075,2.717,2.717,0,0,0,.345.081l.057,0a.386.386,0,0,0,.374-.269.339.339,0,0,0-.177-.4,1.929,1.929,0,0,0-.9-.246,1.259,1.259,0,0,0-.923.383,1.5,1.5,0,0,0-.357.837c-.026.153-.041.308-.055.458a5.311,5.311,0,0,1-.073.537.848.848,0,0,1-.086.233,1.438,1.438,0,0,0-.467-.194c-.607-.177-1.526-.444-1.526-2.559a4.507,4.507,0,0,1,.412-1.7,2.876,2.876,0,0,0,.733-.107,2.549,2.549,0,0,0,.808-.451c.093-.068.171-.125.249-.177.06-.037.121-.08.181-.122l.041-.029a2.154,2.154,0,0,1,.628-.348,1.1,1.1,0,0,1,.314-.041,2.948,2.948,0,0,1,.847.155,6.464,6.464,0,0,1,1.828,1.027l.122.09a.364.364,0,0,0,.212.067.352.352,0,0,0,.306-.169.309.309,0,0,0-.018-.34,2.24,2.24,0,0,0-.593-.545c-.063-.047-.119-.086-.171-.127a4.14,4.14,0,0,0-1.053-.6,4.244,4.244,0,0,0-1.46-.311,1.937,1.937,0,0,0-.768.143,4.955,4.955,0,0,0-.8.472,2.868,2.868,0,0,1-1.141.552,1.824,1.824,0,0,1-.282.023,4.9,4.9,0,0,0-.288-.527,3.291,3.291,0,0,1-.6-1.758,5.591,5.591,0,0,1,.2-1.4c.036-.151.072-.3.109-.474a2.53,2.53,0,0,1,.22-.277,1.666,1.666,0,0,1,.85-.431,3.409,3.409,0,0,1,.788-.112,1.608,1.608,0,0,1,.381.041c.143.031.213.125.322.29a1.4,1.4,0,0,0,.313.36,3.706,3.706,0,0,0,1.086,1.547,3.819,3.819,0,0,0,1.5.635,3.993,3.993,0,0,1,1.122.417,1.256,1.256,0,0,0,.151.129,5.5,5.5,0,0,1,.438.615,4,4,0,0,0,1.841,1.778,1.833,1.833,0,0,0,.594.1,2.02,2.02,0,0,0,.549-.083,1.1,1.1,0,0,1,.26-.049.308.308,0,0,1,.153.041,2.655,2.655,0,0,1,.436.331,3.125,3.125,0,0,0,.609.443,1.526,1.526,0,0,0,.261.1,1.089,1.089,0,0,0,.278.036,1.719,1.719,0,0,0,.622-.145,1.319,1.319,0,0,1,.449-.112c.138,0,.332.176.475.3l.042.034a3.576,3.576,0,0,0,.783.563l.036.02a1.258,1.258,0,0,0,.116.055,1.241,1.241,0,0,0,.462.085,2.869,2.869,0,0,0,.659-.1,3.534,3.534,0,0,1,.508-.093c.117,0,.217-.01.306-.01h.05c-.06.16-.116.332-.174.513a4.4,4.4,0,0,1-1.613,2.543,3.088,3.088,0,0,0-.5-.415c-.127-.088-.256-.171-.384-.252-.163-.1-.316-.2-.457-.3-.021-.016-.1-.067-.1-.067a3.5,3.5,0,0,0-1.436-.619l-.169-.028a1.9,1.9,0,0,1-.645-.186,1.259,1.259,0,0,1-.371-.469l-.041-.068a2.111,2.111,0,0,0-.558-.689,1.209,1.209,0,0,0-.5-.208,1.177,1.177,0,0,0-.225-.023,2.884,2.884,0,0,0-.539.072l-.114.024a3.562,3.562,0,0,1-.646.057c-.116,0-.234,0-.363-.015-.083-.007-.173-.015-.264-.024-.217-.021-.418-.041-.624-.041a1.863,1.863,0,0,0-.824.161.934.934,0,0,0-.436,1.241.3.3,0,0,0,.295.22.324.324,0,0,0,.233-.1.3.3,0,0,0,.073-.254l-.01-.041c-.068-.313-.041-.327.057-.373a1.574,1.574,0,0,1,.581-.107c.036,0,.073,0,.107,0a5.238,5.238,0,0,1,.635.052,6.159,6.159,0,0,0,.718.055c.055,0,.112,0,.169,0a3.459,3.459,0,0,0,.451-.067,2.453,2.453,0,0,1,.457-.062.546.546,0,0,1,.213.041.446.446,0,0,1,.116.065,1.417,1.417,0,0,1,.316.449,2.291,2.291,0,0,0,.352.527,2.4,2.4,0,0,0,1.26.594l.161.036a3.025,3.025,0,0,1,.54.151,2.734,2.734,0,0,1,.511.311l.047.036q.1.071.2.137l.342.234c.205.133.405.264.591.4a.351.351,0,0,1,.05.047l.044.041a1.239,1.239,0,0,1,.267.326,1.011,1.011,0,0,1,.057.137,3.056,3.056,0,0,1-.168.446,4.088,4.088,0,0,1-.627.956,4.9,4.9,0,0,1-3.483,1.736" transform="translate(-140.027 -123.338)" fill="#2e4488"/>
      <path id="Path_997" data-name="Path 997" d="M178.048,180.612a2.845,2.845,0,0,1-1.4-.4,1.585,1.585,0,0,0-.7-.239.653.653,0,0,0-.241.046c-.1-.008-.2-.015-.28-.015-.168,0-.339.011-.5.021l-.2.011c-.094,0-.2.013-.308.023-.186.016-.348.031-.493.031a.978.978,0,0,1-.121,0,1.153,1.153,0,0,1-.374-.1.367.367,0,0,0-.088-.064,6.89,6.89,0,0,1-.8-.48,2.256,2.256,0,0,1-.19-.145,4.089,4.089,0,0,1-.4-.366,3.214,3.214,0,0,1-.329-.422,3.934,3.934,0,0,1-.441-.97,3.628,3.628,0,0,1-.231-1.2,1.047,1.047,0,0,1,.449-.869.578.578,0,0,1,.326-.094,1.493,1.493,0,0,1,.817.331l.161.117a2.951,2.951,0,0,0,.84.482,3.119,3.119,0,0,0,.915.143,1.453,1.453,0,0,0,.169-.013l.068-.008.065,0c.059,0,.117-.008.173-.018a.317.317,0,0,0,.264-.314.307.307,0,0,0-.174-.27.194.194,0,0,0-.091-.037,4.3,4.3,0,0,0-.49-.052c-.072,0-.142-.008-.213-.015a1.584,1.584,0,0,1-.747-.27c-.124-.077-.243-.164-.353-.247a3.287,3.287,0,0,0-.9-.519,1.625,1.625,0,0,0-.528-.09,1.507,1.507,0,0,0-.848.262,1.291,1.291,0,0,0-.251-.348,2.826,2.826,0,0,0-.495-.368l-.037-.023c-.05-.031-.1-.065-.153-.1a1.683,1.683,0,0,0-.806-.327l-.124-.015a4.578,4.578,0,0,0-.5-.037,1.9,1.9,0,0,0-.265.018,1.559,1.559,0,0,0-.775.381,2.079,2.079,0,0,0-.672,1.464.29.29,0,0,0,.083.215.317.317,0,0,0,.212.086.309.309,0,0,0,.243-.119c.083-.125.153-.251.218-.368a2.683,2.683,0,0,1,.348-.541,1.594,1.594,0,0,1,.407-.316.457.457,0,0,1,.187-.026c.073,0,.15,0,.223.011l.221.015a2.369,2.369,0,0,1,.474.055,2.06,2.06,0,0,1,.575.308.967.967,0,0,1,.365.4c.018.042.036.08.049.117a1.856,1.856,0,0,0-.3.8,4.562,4.562,0,0,0,.734,2.743c.062.1.132.2.208.306l-.039.007a1.563,1.563,0,0,1-.3.039c-.2,0-.576-.07-1.447-.666a1.123,1.123,0,0,0-.641-.231,1.343,1.343,0,0,0-.329.05,1.113,1.113,0,0,1-.256.041.889.889,0,0,1-.344-.08,3.5,3.5,0,0,1-1.311-1.229,5.086,5.086,0,0,0-.767-.871.711.711,0,0,1-.173-.431,5.686,5.686,0,0,0-.083-1.2,2.713,2.713,0,0,1,.023-.646,4.121,4.121,0,0,0,.039-.425,2.224,2.224,0,0,0-.194-1.07,1.426,1.426,0,0,0-.881-.676c-.073-.023-.36-.112-.427-.135a1.765,1.765,0,0,0,.257-.233,2.324,2.324,0,0,0,.453-1.63,4.517,4.517,0,0,0-.164-1.109,3.708,3.708,0,0,1-.145-1.1,1.435,1.435,0,0,1,.288-.892,1.8,1.8,0,0,1,.891-.523c.2-.047.405-.08.607-.111l.047-.007c.166-.026.335-.052.5-.086a5.724,5.724,0,0,0,1.143-.339,2.351,2.351,0,0,0,1.41-1.833,2.41,2.41,0,0,1,.41-.42,1.915,1.915,0,0,1,.358-.234,1.088,1.088,0,0,1,.246-.08c.081-.02.148-.036.215-.057a.316.316,0,0,0,.223-.308.311.311,0,0,0-.239-.29.832.832,0,0,0-.208-.028,1.676,1.676,0,0,0-1.092.555,2.945,2.945,0,0,0-.267-.575,3.235,3.235,0,0,1-.387-.827,3.6,3.6,0,0,1-.08-1.006,2.8,2.8,0,0,1,.07-.471l.028-.14a.3.3,0,0,0-.073-.252.326.326,0,0,0-.233-.1.3.3,0,0,0-.26.15,2.569,2.569,0,0,0-.3,1.524,2.308,2.308,0,0,0-.723-.02l-.075.008a3.916,3.916,0,0,1-.549.052,1.481,1.481,0,0,1-.409-.054,1.578,1.578,0,0,1-.692-.425,1.644,1.644,0,0,1-.456-1.5,2.56,2.56,0,0,1,.14-.342l.057-.12c.042-.1.078-.19.112-.288.026-.073.052-.15.085-.225a1.371,1.371,0,0,1,.4-.453,2.858,2.858,0,0,0,.344-.332.3.3,0,0,0,.039-.339.348.348,0,0,0-.309-.184h-.021l-.057.008c-.83.2-1.167,1-1.415,1.582-.032.078-.067.155-.1.23a2.19,2.19,0,0,0-.026,1.672,1.873,1.873,0,0,0-.171.848,2.041,2.041,0,0,0,.028.319c.007.059.013.106.018.151a1.811,1.811,0,0,1-.064.487,1.555,1.555,0,0,1-.855,1.206c-.067.028-.133.052-.2.077a1.922,1.922,0,0,0-.58.291,1.825,1.825,0,0,0-.521.7c-.02.041-.036.086-.052.13a3.056,3.056,0,0,0-.48-.633.349.349,0,0,0-.252-.106.368.368,0,0,0-.285.135.329.329,0,0,0-.062.3,3.586,3.586,0,0,0,.321.684l.12.215a4.641,4.641,0,0,1,.386,1.037c.013.054.031.112.049.177.081.277.2.69.031.843a.267.267,0,0,1-.181.049,1.555,1.555,0,0,1-.583-.155,3.8,3.8,0,0,1-.845-.593,4.315,4.315,0,0,1-.712-.765,1.83,1.83,0,0,1-.135-.233,5.636,5.636,0,0,1,1.107-4.27c.041,0,.083,0,.125,0a3.261,3.261,0,0,0,.35-.023c.062-.007.114-.013.169-.016q.059,0,.117,0a1.5,1.5,0,0,1,.405.055,2.558,2.558,0,0,1,.344.27,1.957,1.957,0,0,0,.409.311.308.308,0,0,0,.13.028.331.331,0,0,0,.3-.192.309.309,0,0,0-.059-.36l-.116-.12a2.284,2.284,0,0,0-.728-.593,1.553,1.553,0,0,0-.578-.094c-.093,0-.187,0-.28.01l-.093,0c.641-1.993,2.26-3.7,4.938-5.2.041.044.08.085.12.125a3.121,3.121,0,0,1,.43.49,3.472,3.472,0,0,1,.295.537,2.481,2.481,0,0,1,.1.3c.029.1.059.212.1.313a.339.339,0,0,0,.317.212.331.331,0,0,0,.317-.221,1.432,1.432,0,0,0-.177-1.053,3.258,3.258,0,0,0-.217-.386c.039,0,.078,0,.119,0a4.289,4.289,0,0,0,.975-.21c.186-.055.366-.109.539-.146a3.352,3.352,0,0,1,.628-.055,6.04,6.04,0,0,1,.91.077,2.668,2.668,0,0,1,.648.176,2.185,2.185,0,0,1,.295.158,3.406,3.406,0,0,0,.339.182.36.36,0,0,0,.143.031.338.338,0,0,0,.287-.153.3.3,0,0,0,0-.33,1.854,1.854,0,0,0-1.114-.679,4.937,4.937,0,0,0-1.389-.163l-.176,0a5.175,5.175,0,0,0-1.477.272,3.75,3.75,0,0,1-.747.151c-.1.01-.189.015-.265.015a1.057,1.057,0,0,1-.3-.033c-.051-.049-.1-.1-.14-.148.011-.028.026-.052.041-.08a3.615,3.615,0,0,1,3.606-2.156,7.111,7.111,0,0,1,.752.042h.094l.081-.077s.015-.02.042-.052c.01.021.018.042.029.062a2.734,2.734,0,0,0,1.21,1.115,1.658,1.658,0,0,0,.363.249q.049.024.088.049c.1.057.2.111.291.163a3.456,3.456,0,0,1,.624.4,3.623,3.623,0,0,1,.659.752,1.9,1.9,0,0,1,.182.4,2.048,2.048,0,0,0,.291.589.336.336,0,0,0,.269.13.32.32,0,0,0,.327-.309,1.986,1.986,0,0,0-.259-.891l-.024-.052a3.693,3.693,0,0,0-.664-.9,2.97,2.97,0,0,0,.795-.119.32.32,0,0,0,.23-.322.313.313,0,0,0-.256-.285,4.147,4.147,0,0,0-.7-.063l-.231-.01a2.944,2.944,0,0,1-.926-.2,3.435,3.435,0,0,1-1.353-.884,1.347,1.347,0,0,1-.168-.254l.109.007c.06,0,.12,0,.177,0a1.507,1.507,0,0,0,.729-.34,5.2,5.2,0,0,1,3.137-1,6.122,6.122,0,0,1,2.854.552,3.274,3.274,0,0,1,1.464,1.566.268.268,0,0,0-.021.031c-.085.13-.151.252-.22.371a4.841,4.841,0,0,1-.275.453,1.047,1.047,0,0,1-.881.441,1.616,1.616,0,0,1-.672-.16,1.936,1.936,0,0,1-.744-.746,3.311,3.311,0,0,0-.586-.694,2.339,2.339,0,0,0-.22-.164c-.186-.129-.37-.257-.384-.4a1.449,1.449,0,0,1,.274-.637l.065-.106a.3.3,0,0,0-.011-.324.319.319,0,0,0-.267-.143.328.328,0,0,0-.173.05,1.636,1.636,0,0,0-.581.965c-.137.562.348.923.581,1.1a3.19,3.19,0,0,1,.822.935,2.235,2.235,0,0,0,1.013.9,2.54,2.54,0,0,0,.949.223,3.725,3.725,0,0,0,.1,1.127,10.563,10.563,0,0,0,.383,1.4c.028.068.055.145.09.22a5.392,5.392,0,0,0-1.215-.179c-.054,0-.1,0-.138,0a1.357,1.357,0,0,0-.3.029,2.786,2.786,0,0,1-.585.046c-.1,0-.208,0-.309.008-.156,0-.293.008-.428.008a3.329,3.329,0,0,1-.9-.1,3.266,3.266,0,0,1-.7-.324,4.521,4.521,0,0,0-.679-.327,2.643,2.643,0,0,0-.9-.164,2.472,2.472,0,0,0-.409.034,2.91,2.91,0,0,0-.628.179,2.091,2.091,0,0,0-.267.142.476.476,0,0,0-.078.067l0,0a.286.286,0,0,0,.067.537.312.312,0,0,0,.085.011.5.5,0,0,0,.29-.107,1.421,1.421,0,0,1,.627-.151c.078-.007.155-.008.234-.008s.182,0,.272.011a1.686,1.686,0,0,1,.659.262l.037.023.252.147a4.041,4.041,0,0,0,1.088.5,3.771,3.771,0,0,0,.581.093c-.08.073-.156.153-.233.234-.044.052-.171.2-.171.2a2.567,2.567,0,0,1-.694.627,3.664,3.664,0,0,1-.949.293c-.107.024-.208.046-.3.068a.312.312,0,0,0-.244.345.321.321,0,0,0,.326.278,3.038,3.038,0,0,0,2.191-.768c.116-.114.225-.233.332-.35a5.776,5.776,0,0,1,.457-.471,2.387,2.387,0,0,1,1.014-.524,1.554,1.554,0,0,1,.355-.034,4.182,4.182,0,0,1,.832.106,2.691,2.691,0,0,1,1.014.412,1.514,1.514,0,0,1,.469.55c.023.272.042.562.039.853a2.6,2.6,0,0,1-.062.462,3.132,3.132,0,0,0-.072.576c0,.3.021.593.049.9a2.194,2.194,0,0,0-1.763-.982c-.049,0-.1,0-.151.007a1.951,1.951,0,0,0-1.381.881c-.031.039-.112.151-.112.151a1.175,1.175,0,0,1-.428.425.567.567,0,0,1-.252.052,1.789,1.789,0,0,1-.374-.052,5.574,5.574,0,0,0-1.166-.145,2.446,2.446,0,0,0-.685.085l0-.02c-.059-.322-.435-.425-.71-.5a1.6,1.6,0,0,1-.2-.064,2.538,2.538,0,0,0-.3-.13,1.756,1.756,0,0,1-.363-.174,1.472,1.472,0,0,1-.376-.4,2.309,2.309,0,0,1-.332-1.031c-.021-.184-.028-.37-.031-.51l0-.213a.465.465,0,0,0-.09-.257l0,0a.343.343,0,0,0-.313-.189.414.414,0,0,0-.111.016l-.016-.02-.052.05a.352.352,0,0,0-.132.14.478.478,0,0,0-.086.184,1.148,1.148,0,0,0-.008.234l0,.068a5.981,5.981,0,0,0,.046.611,3.234,3.234,0,0,0,.379,1.216,2.321,2.321,0,0,0,1.091.957,4,4,0,0,0,.625.223,1.569,1.569,0,0,0,.215.028c.151.011.234.021.28.029a1.158,1.158,0,0,0-.407.617,2.367,2.367,0,0,0,.023,1.1,3.6,3.6,0,0,1,.072.519.3.3,0,0,0,.6-.006l0-.345c.007-.287.01-.576.031-.855a.561.561,0,0,1,.534-.558,1.5,1.5,0,0,1,.313-.029,3.736,3.736,0,0,1,.755.107c.189.039.381.081.586.106q.1.01.2.01a1.646,1.646,0,0,0,1.369-.769c.3-.441.588-.736.99-.736a.655.655,0,0,1,.124.01,1.335,1.335,0,0,1,.887.6,4.363,4.363,0,0,1,.659,1.169c.067.174.225.581.116.812l-.122.269h.174c-.021.246-.05.488-.076.731a15.232,15.232,0,0,0-.12,1.657c0,.205.008.392.021.555a2.78,2.78,0,0,1-.161-.427c-.033-.1-.065-.207-.1-.3l-.036-.093a2.214,2.214,0,0,0-.306-.611,3.005,3.005,0,0,0-.651-.619,2.149,2.149,0,0,0-1.244-.306c-.116,0-.231,0-.347.008l-.23.007-.176,0a2.86,2.86,0,0,1-.648-.06.905.905,0,0,1-.425-.282c-.075-.07-.15-.14-.238-.208a.318.318,0,0,0-.184-.06.305.305,0,0,0-.267.151.276.276,0,0,0,.026.309c.029.039.06.083.088.124a1.782,1.782,0,0,0,.4.443,1.63,1.63,0,0,0,.809.267,4.309,4.309,0,0,0,.48.021l.43,0a2.267,2.267,0,0,1,.9.13c.485.215.64.65.819,1.153a2.367,2.367,0,0,0,.806,1.273c-.021.033-.041.067-.06.1s-.047.086-.07.132a.511.511,0,0,1-.112.176,2.5,2.5,0,0,1-1.534.539c-.14.01-.285.016-.441.016-.425,0-.868-.039-1.257-.072-.431-.036-.866-.072-1.3-.072a6.235,6.235,0,0,0-.749.042l-.018,0c-.067,0-.14-.016-.221-.029a2.921,2.921,0,0,1-.861-.332c-.376-.205-.938-.7-.842-1.151.052-.238.371-.368.467-.4a1.7,1.7,0,0,1,.358-.07,1.89,1.89,0,0,0,.6-.143,1.318,1.318,0,0,0,.7-1.387.369.369,0,0,0-.7-.1c-.042.1-.078.2-.111.295a1.452,1.452,0,0,1-.16.373c-.077.116-.334.15-.56.179a2.688,2.688,0,0,0-.383.07,1.522,1.522,0,0,0-.723.433,1.547,1.547,0,0,0-.179-.19,1.51,1.51,0,0,0-.417-.265,1.277,1.277,0,0,0-.365-.326,1.64,1.64,0,0,1-.169-.129c-.212-.192-.37-.482-.26-.661a1.238,1.238,0,0,1,.264-.27,2.2,2.2,0,0,0,.3-.295,1.357,1.357,0,0,0,.311-.79.273.273,0,0,0-.08-.217.29.29,0,0,0-.21-.086.294.294,0,0,0-.3.252,1.08,1.08,0,0,1-.506.707l-.047.037a.988.988,0,0,0-.488.677,1.387,1.387,0,0,0,.277.954c-.026,0-.05.01-.077.015a1.876,1.876,0,0,0-1.156.974,3.672,3.672,0,0,0-.171.386c-.142.355-.239.6-.588.721a.276.276,0,0,0-.182.321.287.287,0,0,0,.28.223h.02l.024,0a1.231,1.231,0,0,0,1.016-.77l.07-.163a1.985,1.985,0,0,1,.5-.795.929.929,0,0,1,.6-.2,1.3,1.3,0,0,1,.751.238.716.716,0,0,1,.208.378,1.185,1.185,0,0,0,.322.563,2.818,2.818,0,0,0,1.224,1.237c.052.029.1.055.158.08a2.387,2.387,0,0,0-1.035.725l-.114,0a6.292,6.292,0,0,0-1.094.085,2.231,2.231,0,0,0-.848.386c-.078.05-.143.093-.213.134a4.011,4.011,0,0,1-.988.373,2.193,2.193,0,0,1-.6.086,1.8,1.8,0,0,1-.319-.028c-.532-.1-.812-.588-1.078-1.122a6.119,6.119,0,0,1-.355-.941,3.284,3.284,0,0,1-.076-.35,3.344,3.344,0,0,0-.117-.5.327.327,0,0,0-.316-.223.338.338,0,0,0-.345.288,1.779,1.779,0,0,0,.065.842l.015.063a6.364,6.364,0,0,0,.37,1.063,2.678,2.678,0,0,0,1.358,1.553,2.338,2.338,0,0,0,.809.137,4.579,4.579,0,0,0,1.441-.288,4.175,4.175,0,0,0,.938-.49l.085-.054a2.3,2.3,0,0,1,1.206-.207.846.846,0,0,0,.051.161c.241.643,1.029.946,1.605,1.167l.143.054a2.95,2.95,0,0,1,.736.36,2.229,2.229,0,0,1,.226.2,2.947,2.947,0,0,0,.308.277,1.367,1.367,0,0,0,.832.264,1.949,1.949,0,0,0,.316-.026.381.381,0,0,0,.335-.409.431.431,0,0,0-.435-.383.545.545,0,0,0-.07,0,.81.81,0,0,1-.111.007c-.238,0-.379-.119-.607-.33a3.131,3.131,0,0,0-.348-.288,4.544,4.544,0,0,0-.992-.472,3.853,3.853,0,0,1-.917-.443c-.137-.1-.29-.249-.244-.407s.3-.324.51-.441a3.905,3.905,0,0,1,1.784-.43c.067,0,.13,0,.2,0,.412,0,.835.034,1.245.067.431.036.861.07,1.288.07a5.827,5.827,0,0,0,1.026-.083,3,3,0,0,0,1.237-.5c.015.3.044.6.075.889.037.391.08.8.08,1.2a1.155,1.155,0,0,1-.119.168.7.7,0,0,0-.194.407,1.676,1.676,0,0,1-.627.459c-.12.05-.246.091-.366.133-.163.055-.316.107-.462.171a.293.293,0,0,0-.174.335.264.264,0,0,0,.068.12.314.314,0,0,0,.236.117h0a2.47,2.47,0,0,0,1.612-.545c.033-.026.067-.055.1-.086a3.261,3.261,0,0,1,.1.806c.01.339,0,.749-.013,1.224-.011.34-.021.718-.026,1.143,0,.086,0,.171,0,.257,0,.124.013.251.021.376.01.151.021.309.024.464a1.693,1.693,0,0,0-.788-.205,1.718,1.718,0,0,0-.184.01,1.628,1.628,0,0,1-.77-.511,1.207,1.207,0,0,1-.189-.425,1.937,1.937,0,0,0-.213-.508,1.323,1.323,0,0,0-.9-.56l-.047,0a.361.361,0,0,0-.316.182.3.3,0,0,0,.037.339,1.421,1.421,0,0,0,.241.221l.078.065a.77.77,0,0,1,.287.378,3.187,3.187,0,0,0,.244.6,1.787,1.787,0,0,0,.22.314,1.87,1.87,0,0,0,.464.376,3.753,3.753,0,0,0-.324.456,2.542,2.542,0,0,1-.3.422,1.625,1.625,0,0,1-1.249.383c-.124,0-.249,0-.371-.008l-.155,0a.281.281,0,0,0-.085.552,3,3,0,0,0,.863.127,2.576,2.576,0,0,0,.865-.142,2.7,2.7,0,0,0,1.136-.943l.041-.052a.944.944,0,0,1,.435-.376.807.807,0,0,1,.269-.041,1.408,1.408,0,0,1,.386.06.6.6,0,0,1,.233.125,1.31,1.31,0,0,1-.3.5l-.062.064.011.086c0,.042,0,.081,0,.124,0,.633-.628,1.288-1.682,1.288" transform="translate(-139.729 -132.059)" fill="#2e4488"/>
      <path id="Path_998" data-name="Path 998" d="M158.683,165.3c.02-.274.031-.56.031-.861,0-.205.015-.42.033-.63.015-.179.029-.36.034-.536a5.918,5.918,0,0,0,.775.6c.114.07.233.138.347.2l.036.02a2.174,2.174,0,0,1,.786.589,2.246,2.246,0,0,1,.226.536,3.311,3.311,0,0,0-1.128-.2,2.907,2.907,0,0,0-.3.015,2.455,2.455,0,0,0-.843.257" transform="translate(-139.836 -124.302)" fill="#2e4488"/>
      <path id="Path_999" data-name="Path 999" d="M172.245,156.761a2.077,2.077,0,0,1-.259-.368,4.434,4.434,0,0,1-.4-1.184l-.031-.137c-.029-.122-.064-.249-.1-.373-.024-.091-.052-.182-.075-.274a1.815,1.815,0,0,1-.039-.417c0-.088,0-.176-.013-.262a1.962,1.962,0,0,0,.848-.578c.047-.054.093-.109.135-.166v.02a10.167,10.167,0,0,0,.116,3.229c.018.047-.013.114-.067.221a1.143,1.143,0,0,0-.114.288" transform="translate(-131.895 -130.756)" fill="#2e4488"/>
      <path id="Path_1000" data-name="Path 1000" d="M164.878,171.543a6.688,6.688,0,0,0-.943-.381c-1.151-.355-1.464-1.255-1.8-2.206a3.087,3.087,0,0,0-1.213-1.879,6.93,6.93,0,0,0-.72-.344,2.332,2.332,0,0,1-.9-.645,5.5,5.5,0,0,1-.816-1.12,2.679,2.679,0,0,1,.309-2.445,5.484,5.484,0,0,0,.791.817,2.918,2.918,0,0,0,1.815.834,1.611,1.611,0,0,0,.632-.129c.77-.335.542-1.294.467-1.61-.036-.155-.075-.309-.117-.456l0-.083a4.835,4.835,0,0,1-.011-.488,1.451,1.451,0,0,1,.308-.8,1.127,1.127,0,0,1,.653-.418,2.2,2.2,0,0,0,.778-.414,2.509,2.509,0,0,0,.772-1.439,2.98,2.98,0,0,0,.034-.91,2.571,2.571,0,0,0,1.213.6,2.2,2.2,0,0,0,.371.033,3.139,3.139,0,0,0,.869-.146.951.951,0,0,1,.265-.039.9.9,0,0,1,.347.072.872.872,0,0,1,.134.086,5.18,5.18,0,0,0,.261.49,2.917,2.917,0,0,1,.342.762,1.428,1.428,0,0,1-.669,1.366,3.25,3.25,0,0,1-.935.322c-.462.109-.856.187-1.244.249a2.365,2.365,0,0,0-1.753,1.149,3.184,3.184,0,0,0-.2,2.1c.026.13.059.257.089.384a5.158,5.158,0,0,1,.143.716,3,3,0,0,1-.036.809,1.08,1.08,0,0,1-.314.625.618.618,0,0,1-.345.163c-.024-.031-.06-.078-.094-.124s-.08-.106-.122-.158a1.82,1.82,0,0,1-.308-.446,1.018,1.018,0,0,1-.086-.731c.008-.013.028-.042.114-.049a.322.322,0,0,0,.3-.332.313.313,0,0,0-.326-.293.787.787,0,0,0-.646.288,1.72,1.72,0,0,0-.026,1.491,1.431,1.431,0,0,0,.309.475l.039.044.135.169a3.02,3.02,0,0,0,.3.352,2.9,2.9,0,0,0,1.166.589c.609.205.609.635.554,1.377a4.678,4.678,0,0,0-.015.694,3.458,3.458,0,0,0,.057.348c.018.083.034.173.044.257a3.1,3.1,0,0,1,.013.428" transform="translate(-140.049 -127.977)" fill="#2e4488"/>
      <path id="Path_1001" data-name="Path 1001" d="M173.406,178.063c-.272,0-.545-.33-.832-.682-.368-.448-.785-.954-1.379-.954l-.567,0c-.169,0-.35,0-.536-.016a2.744,2.744,0,0,1-2.073-.98,4.472,4.472,0,0,0,.9-2.035,5.747,5.747,0,0,0,1.863-3.033c.021-.068.057-.174.1-.287a4.048,4.048,0,0,0,1.791.427,3.067,3.067,0,0,0,2.7-1.415,3.066,3.066,0,0,0,2.7,1.415,4.064,4.064,0,0,0,1.794-.427l.09.265a5.771,5.771,0,0,0,1.869,3.054,3.961,3.961,0,0,0,.22.822,4.366,4.366,0,0,1-2.172,2.2,3.105,3.105,0,0,1-.873.208,2.954,2.954,0,0,1-.321.016,1.4,1.4,0,0,0-1.382.871c-.181.321-.3.532-.7.532a.955.955,0,0,1-.387-.192,2.044,2.044,0,0,0-1.154-.422,2.454,2.454,0,0,0-1.135.4,1.527,1.527,0,0,1-.511.226" transform="translate(-133.973 -120.65)" fill="#2e4488"/>
      <path id="Path_1002" data-name="Path 1002" d="M173.844,184.716c-.817,0-1.648-.34-1.657-1.1-.039-3.522-.5-4.549-.913-5.454l-.116-.254q-.076-.171-.147-.357a19.343,19.343,0,0,1-.858-2.839l.02.024a2.608,2.608,0,0,0,1.893,1.216,2.483,2.483,0,0,0,1.189-.41,1.943,1.943,0,0,1,.459-.218,1.749,1.749,0,0,1,.353.2,2.372,2.372,0,0,0,1.289.471,1.668,1.668,0,0,0,1.605-1.084c.181-.35.213-.37.378-.37h.029A12.666,12.666,0,0,1,176.6,177a9.9,9.9,0,0,0-.422,1.259,18.889,18.889,0,0,0-.451,5.41c-.062.671-1.016,1.05-1.882,1.05" transform="translate(-132.633 -117.232)" fill="#2e4488"/>
      <path id="Path_1003" data-name="Path 1003" d="M174.749,179.079a1.874,1.874,0,0,1-1.032-.42,2.694,2.694,0,0,0-1.565-.571,9.593,9.593,0,0,0-1.657.223,10.543,10.543,0,0,1-1.819.239c-.059,0-.12,0-.179,0-3.662-.2-5.591-3.266-6.291-4.684a3.946,3.946,0,0,0,.988.13,3.581,3.581,0,0,0,.912-.117,3.586,3.586,0,0,0,2.791,1.262,6.12,6.12,0,0,0,3.867-1.557c.01.013.023.026.033.041a4.28,4.28,0,0,0,2.846,1.26,14.016,14.016,0,0,0,1.062,3.287c.122.275.226.534.319.786a.818.818,0,0,1-.273.125" transform="translate(-137.623 -117.832)" fill="#2e4488"/>
      <path id="Path_1004" data-name="Path 1004" d="M175.078,179.4c-.147,0-.288-.007-.423-.02a8.037,8.037,0,0,1,.319-.941,12.869,12.869,0,0,0,.92-3.18,5.109,5.109,0,0,0,2.724-2.224,6.626,6.626,0,0,0,.55.619,6.169,6.169,0,0,0,4.161,1.819,3.584,3.584,0,0,0,2.791-1.262,3.593,3.593,0,0,0,.912.119,4.05,4.05,0,0,0,1.438-.278,7.868,7.868,0,0,1-7.426,4.914H181a4.775,4.775,0,0,1-1.646-.345,5.57,5.57,0,0,0-1.9-.381,2.064,2.064,0,0,0-1.47.684,1.349,1.349,0,0,1-.889.477Z" transform="translate(-129.805 -117.172)" fill="#2e4488"/>
    </g>
  </g>
</svg>
