<svg xmlns="http://www.w3.org/2000/svg" width="81" height="81" viewBox="0 0 81 81">
  <g id="eyes" transform="translate(-154.268 -505.344)">
    <path id="Path_434" data-name="Path 434" d="M143.2,246.559a40,40,0,1,1-40-40,40,40,0,0,1,40,40" transform="translate(91.569 299.283)" fill="#fff" fill-rule="evenodd"/>
    <path id="Path_435" data-name="Path 435" d="M143.2,246.559a40,40,0,1,1-40-40A40,40,0,0,1,143.2,246.559Z" transform="translate(91.569 299.283)" fill="none" stroke="#49c5e0" stroke-width="1"/>
    <path id="Path_931" data-name="Path 931" d="M128.607,236.473a12.32,12.32,0,0,0-1.355.029c-.881.052-1.887.145-2.808.155a3.911,3.911,0,0,1-2.67-.622c.428-.2.907-.412,1.4-.653a14.222,14.222,0,0,0,1.884-1.081,6.454,6.454,0,0,0,.77-.612,3.429,3.429,0,0,0,.881-1.219,2.173,2.173,0,0,0,.151-.824,3.8,3.8,0,0,1-.586.389,10.879,10.879,0,0,1-1.423.676c-.3.122-.638.241-1.018.365a23.5,23.5,0,0,1-2.336.628c-.742.163-1.573.313-2.5.446a7.231,7.231,0,0,0,1.882-1.063,7.723,7.723,0,0,0,1.483-1.477,6.607,6.607,0,0,0,.545-.843,3.581,3.581,0,0,0,.488-1.61v-.036a.075.075,0,0,0-.023.015c-.347.207-.827.456-1.384.715-.3.14-.628.277-.965.417-.7.283-1.456.554-2.193.77a8.018,8.018,0,0,1-3.144.449,5.947,5.947,0,0,0,2.082-1.509,8.331,8.331,0,0,0,1.2-1.76c.161-.3.311-.609.454-.931.041-.086.081-.177.12-.269-.1.034-.192.072-.287.1-.348.129-.7.244-1.031.357-.793.257-1.55.469-2.305.656-1.18.285-2.357.5-3.647.7-.384.065-.78.125-1.189.186,0-.013.339-.2.821-.554a9.644,9.644,0,0,0,2.169-2.185,5.755,5.755,0,0,0,.918-2.045,5.3,5.3,0,0,0,.086-.545c-.114.1-.23.19-.353.282a10.1,10.1,0,0,1-1.877,1.084,18.209,18.209,0,0,1-3.276,1.078,22.021,22.021,0,0,1-2.861.479,4.739,4.739,0,0,0,1.854-1.486,5.423,5.423,0,0,0,1.128-3.23v-.047l-.024.024a11.325,11.325,0,0,1-2.467,1.892,18.519,18.519,0,0,1-4.008,1.565,4.65,4.65,0,0,0,1.716-3.859,2.448,2.448,0,0,0-.031-.254c-.026.047-.057.093-.086.137-.907,1.338-3.878,2.787-5.871,3.227-17.54-1.5-19.905,8.823-29.013,18.8a.873.873,0,0,0-.275.6v0a.636.636,0,0,0,.015.135,1.333,1.333,0,0,0,.037.132,1.9,1.9,0,0,0,.806.8,2.252,2.252,0,0,0,.221.129c.078.046.164.086.252.129a8.721,8.721,0,0,0,3.663.871c4.635.124,9.777,6.893,25.183,5.462a10.577,10.577,0,0,1,5.643,2.011,4.5,4.5,0,0,0-.746-2.734,10.467,10.467,0,0,1,5.666,2.012,4.386,4.386,0,0,0-1.368-3.461,11.853,11.853,0,0,1,4.326,1.874,4.407,4.407,0,0,0-1.434-3.517q.142-.09.274-.181c1.4.137,3.38.431,4.349,1.731a3.886,3.886,0,0,0-1.327-3.863,8.106,8.106,0,0,1,4.79,1.348,3.5,3.5,0,0,0-2.349-3.611c.156-.155.3-.3.451-.456a21.986,21.986,0,0,1,4.73.668c-.244-1.27-1.76-2.351-2.854-2.859a4.587,4.587,0,0,0,.588-1.189.781.781,0,0,0-.117-.685,16.45,16.45,0,0,0,1.993.247c.129.01.261.013.391.02a8.542,8.542,0,0,0,3.494-.488,4.762,4.762,0,0,0,1.794-1.169,3.056,3.056,0,0,0,.562-.825l.021-.05c-.026,0-.05,0-.078,0M92.94,249.63c-9.506-.425-10.645-4.816-17.121-4.816-5.934,0-2.641-2.8,1.283-7.3a30.143,30.143,0,0,1,9.765-7.548c-6.937,5-1.591,18.547,8.622,19.668-.824.031-1.667.034-2.55,0m-2.618-5.163c-3.012-3.017-3-8.18-.63-11.564,2-2.851,5.674-4.437,10.63-2.4-5.767,3.566-.462,12.289,5.35,8.844-.961,8.074-10.775,9.689-15.35,5.119m11,4.37c7.558-3.035,11.553-13.181,5.982-18.28,4.394,2.23,6.185,5.243,9.6,7.014a25.83,25.83,0,0,1-15.584,11.266" transform="translate(95.609 308.492)" fill="#2e4488" opacity="0.75"/>
  </g>
</svg>
