<svg xmlns="http://www.w3.org/2000/svg" xmlns:xlink="http://www.w3.org/1999/xlink" width="81" height="81" viewBox="0 0 81 81">
  <defs>
    <clipPath id="clip-path">
      <rect id="Rectangle_1115" data-name="Rectangle 1115" width="33.713" height="51.414" fill="none"/>
    </clipPath>
  </defs>
  <g id="ears" transform="translate(-0.898 -0.903)">
    <path id="Path_590" data-name="Path 590" d="M312.33,246.407a40,40,0,1,1-40-40,40,40,0,0,1,40,40" transform="translate(-230.932 -205.005)" fill="#fff" fill-rule="evenodd"/>
    <path id="Path_591" data-name="Path 591" d="M312.33,246.407a40,40,0,1,1-40-40A40,40,0,0,1,312.33,246.407Z" transform="translate(-230.932 -205.005)" fill="none" stroke="#49c5e0" stroke-width="1"/>
    <g id="Group_1134" data-name="Group 1134" transform="translate(24.4 17.508)" opacity="0.75" clip-path="url(#clip-path)">
      <path id="Path_592" data-name="Path 592" d="M278.283,221.446a9.779,9.779,0,0,0-3.649-3.652.014.014,0,0,1-.013-.008,12.531,12.531,0,0,0-6.211-1.486c-9.5,0-11.677,6.657-18.468,11.709-2.789,2.079-1.613,8.792-1.6,9.2.114,4.748-1.88,7.167-1.88,10.1,0,2.979,2.646,5.119,2.646,8.2a10.563,10.563,0,0,0,.353,6.555,7.181,7.181,0,0,0,.935,1.786,8.969,8.969,0,0,0,2.126,2.126c4.5,3.215,12.209,2.83,15.482-8.72,3.2-11.288,11.7-12.15,12.159-26.777a16.634,16.634,0,0,0-1.876-9.034m-1.7,11.971c.3-3.706.073-7.681-2.807-10.117-3.046-2.571-7.9-2.756-13.492,3.645,6.483-4.253,14.29-1.828,12.313,8.3-1.042,5.332-4.785,8.795-5.418,5.91-1.022-4.655-5.605-8.425-6.113-7.571-.238.4,9.363,9.589,1.726,17.064-3.341,3.269-2.112,5.742-5.348,5.742-3.087,0-2.774-4.389-2.774-4.389,1.584-5.719,9.334-1.924,7.458-4.7-2.551-3.771-8.969-2.8-8.979-11.582a9.6,9.6,0,0,1,.374-2.629v-.008a10.286,10.286,0,0,1,.7-1.783,21.793,21.793,0,0,1,4.443-6.538,17.348,17.348,0,0,1,8.613-4.951,9.353,9.353,0,0,1,5.129.327c3.44,1.325,4.8,4.808,4.8,8.536a20.024,20.024,0,0,1-.619,4.749" transform="translate(-246.458 -216.3)" fill="#2e4488"/>
    </g>
  </g>
</svg>
