<svg xmlns="http://www.w3.org/2000/svg" xmlns:xlink="http://www.w3.org/1999/xlink" width="81" height="81" viewBox="0 0 81 81">
  <defs>
    <clipPath id="clip-path">
      <rect id="Rectangle_997" data-name="Rectangle 997" width="52.555" height="16.81" fill="none"/>
    </clipPath>
    <clipPath id="clip-path-2">
      <rect id="Rectangle_999" data-name="Rectangle 999" width="52.555" height="15.653" fill="none"/>
    </clipPath>
    <clipPath id="clip-path-3">
      <rect id="Rectangle_1002" data-name="Rectangle 1002" width="9.865" height="10.13" fill="none"/>
    </clipPath>
    <clipPath id="clip-path-7">
      <rect id="Rectangle_1006" data-name="Rectangle 1006" width="7.341" height="8.764" fill="none"/>
    </clipPath>
    <clipPath id="clip-path-8">
      <rect id="Rectangle_1005" data-name="Rectangle 1005" width="7.338" height="8.764" fill="none"/>
    </clipPath>
    <clipPath id="clip-path-9">
      <rect id="Rectangle_1008" data-name="Rectangle 1008" width="6.156" height="7.989" fill="none"/>
    </clipPath>
    <clipPath id="clip-path-10">
      <rect id="Rectangle_1007" data-name="Rectangle 1007" width="6.154" height="7.989" fill="none"/>
    </clipPath>
    <clipPath id="clip-path-11">
      <rect id="Rectangle_1010" data-name="Rectangle 1010" width="4.694" height="7.667" fill="none"/>
    </clipPath>
    <clipPath id="clip-path-12">
      <rect id="Rectangle_1009" data-name="Rectangle 1009" width="4.692" height="7.665" fill="none"/>
    </clipPath>
    <clipPath id="clip-path-13">
      <rect id="Rectangle_1012" data-name="Rectangle 1012" width="4.223" height="6.818" fill="none"/>
    </clipPath>
    <clipPath id="clip-path-14">
      <rect id="Rectangle_1011" data-name="Rectangle 1011" width="4.222" height="6.818" fill="none"/>
    </clipPath>
    <clipPath id="clip-path-15">
      <rect id="Rectangle_1014" data-name="Rectangle 1014" width="7.343" height="8.767" fill="none"/>
    </clipPath>
    <clipPath id="clip-path-16">
      <rect id="Rectangle_1013" data-name="Rectangle 1013" width="7.341" height="8.766" fill="none"/>
    </clipPath>
    <clipPath id="clip-path-18">
      <rect id="Rectangle_1015" data-name="Rectangle 1015" width="6.154" height="7.987" fill="none"/>
    </clipPath>
    <clipPath id="clip-path-19">
      <rect id="Rectangle_1018" data-name="Rectangle 1018" width="4.692" height="7.667" fill="none"/>
    </clipPath>
    <clipPath id="clip-path-20">
      <rect id="Rectangle_1017" data-name="Rectangle 1017" width="4.691" height="7.665" fill="none"/>
    </clipPath>
    <clipPath id="clip-path-22">
      <rect id="Rectangle_1019" data-name="Rectangle 1019" width="4.222" height="6.82" fill="none"/>
    </clipPath>
    <clipPath id="clip-path-23">
      <rect id="Rectangle_1022" data-name="Rectangle 1022" width="7.19" height="8.766" fill="none"/>
    </clipPath>
    <clipPath id="clip-path-25">
      <rect id="Rectangle_1024" data-name="Rectangle 1024" width="7.191" height="8.764" fill="none"/>
    </clipPath>
    <clipPath id="clip-path-26">
      <rect id="Rectangle_1023" data-name="Rectangle 1023" width="7.19" height="8.764" fill="none"/>
    </clipPath>
    <clipPath id="clip-path-27">
      <rect id="Rectangle_1026" data-name="Rectangle 1026" width="7.126" height="8.565" fill="none"/>
    </clipPath>
    <clipPath id="clip-path-28">
      <rect id="Rectangle_1025" data-name="Rectangle 1025" width="7.125" height="8.564" fill="none"/>
    </clipPath>
    <clipPath id="clip-path-29">
      <rect id="Rectangle_1028" data-name="Rectangle 1028" width="6.035" height="7.989" fill="none"/>
    </clipPath>
    <clipPath id="clip-path-30">
      <rect id="Rectangle_1027" data-name="Rectangle 1027" width="6.034" height="7.989" fill="none"/>
    </clipPath>
    <clipPath id="clip-path-31">
      <rect id="Rectangle_1030" data-name="Rectangle 1030" width="4.606" height="7.665" fill="none"/>
    </clipPath>
    <clipPath id="clip-path-32">
      <rect id="Rectangle_1029" data-name="Rectangle 1029" width="4.604" height="7.665" fill="none"/>
    </clipPath>
    <clipPath id="clip-path-35">
      <rect id="Rectangle_1034" data-name="Rectangle 1034" width="7.19" height="8.762" fill="none"/>
    </clipPath>
    <clipPath id="clip-path-36">
      <rect id="Rectangle_1033" data-name="Rectangle 1033" width="7.188" height="8.762" fill="none"/>
    </clipPath>
    <clipPath id="clip-path-37">
      <rect id="Rectangle_1036" data-name="Rectangle 1036" width="6.535" height="8.549" fill="none"/>
    </clipPath>
    <clipPath id="clip-path-38">
      <rect id="Rectangle_1035" data-name="Rectangle 1035" width="6.535" height="8.551" fill="none"/>
    </clipPath>
    <clipPath id="clip-path-39">
      <rect id="Rectangle_1038" data-name="Rectangle 1038" width="6.034" height="7.991" fill="none"/>
    </clipPath>
    <clipPath id="clip-path-42">
      <rect id="Rectangle_1039" data-name="Rectangle 1039" width="4.603" height="7.663" fill="none"/>
    </clipPath>
  </defs>
  <g id="Mouth" transform="translate(-0.898 -0.901)">
    <path id="Path_508" data-name="Path 508" d="M312.323,310.69a40,40,0,1,1-40-40,40,40,0,0,1,40,40" transform="translate(-230.925 -269.29)" fill="#fff" fill-rule="evenodd"/>
    <path id="Path_509" data-name="Path 509" d="M312.323,310.69a40,40,0,1,1-40-40A40,40,0,0,1,312.323,310.69Z" transform="translate(-230.925 -269.29)" fill="none" stroke="#49c5e0" stroke-width="1"/>
    <g id="Group_854" data-name="Group 854" transform="translate(15.048 44.822)" opacity="0.75">
      <g id="Group_850" data-name="Group 850" transform="translate(0 0.002)" clip-path="url(#clip-path)">
        <path id="Path_510" data-name="Path 510" d="M240.708,307.276v-9.914a73.228,73.228,0,0,0,26.2,5.612,77.538,77.538,0,0,0,26.356-3.933v8.917s-10.413,6.214-26.356,6.214c-16.343,0-26.2-6.9-26.2-6.9" transform="translate(-240.706 -297.362)" fill="#2e4488"/>
      </g>
    </g>
    <g id="Group_859" data-name="Group 859" transform="translate(15.048 24.069)" opacity="0.75">
      <g id="Group_855" data-name="Group 855" transform="translate(0 0.002)" clip-path="url(#clip-path-2)">
        <path id="Path_511" data-name="Path 511" d="M240.708,292.721l.414-8.106a93.94,93.94,0,0,0,25.784,4.09,82.534,82.534,0,0,0,26.356-3.67V294.7l-28.712,5.563Z" transform="translate(-240.706 -284.615)" fill="#2e4488"/>
      </g>
    </g>
    <path id="Path_512" data-name="Path 512" d="M257.574,293.139c-.736,1.293-1.109,6.159-.256,6.534.791.344,7.457.324,7.924-.379.42-.635.684-6.234-1.99-7.816a4.153,4.153,0,0,0-5.679,1.662" transform="translate(-215.533 -256.566)" fill="#fff"/>
    <g id="Group_864" data-name="Group 864" transform="translate(40.701 33.789)" opacity="0.75">
      <g id="Group_863" data-name="Group 863">
        <g id="Group_862" data-name="Group 862" clip-path="url(#clip-path-3)">
          <g id="Group_861" data-name="Group 861" transform="translate(0 0)">
            <g id="Group_860" data-name="Group 860" clip-path="url(#clip-path-3)">
              <path id="Path_513" data-name="Path 513" d="M260.566,300.712h0a13,13,0,0,1-3.258-.269,1.222,1.222,0,0,1-.628-.793,12.232,12.232,0,0,1,.606-6.578,4.807,4.807,0,0,1,4.2-2.489,4.534,4.534,0,0,1,2.307.609,5.435,5.435,0,0,1,2.25,3.632c.451,1.968.339,4.409-.073,5.024-.14.217-.57.863-5.4.863m-2.722-1.342A25.161,25.161,0,0,0,265,299.14c.317-.866.379-5.62-1.817-6.923a3.387,3.387,0,0,0-1.7-.443,3.579,3.579,0,0,0-3.16,1.887c-.638,1.12-.866,5.015-.477,5.71" transform="translate(-256.463 -290.584)" fill="#304489"/>
            </g>
          </g>
        </g>
      </g>
    </g>
    <path id="Path_514" data-name="Path 514" d="M259.4,293.139c.736,1.293,1.109,6.159.254,6.534-.788.344-7.453.324-7.921-.379-.422-.635-.682-6.234,1.988-7.816a4.153,4.153,0,0,1,5.679,1.662" transform="translate(-218.899 -256.566)" fill="#fff"/>
    <g id="Group_869" data-name="Group 869" transform="translate(31.977 33.789)" opacity="0.75">
      <g id="Group_868" data-name="Group 868">
        <g id="Group_867" data-name="Group 867" clip-path="url(#clip-path-3)">
          <g id="Group_866" data-name="Group 866" transform="translate(0 0)">
            <g id="Group_865" data-name="Group 865" clip-path="url(#clip-path-3)">
              <path id="Path_515" data-name="Path 515" d="M256.867,300.714c-4.831,0-5.259-.648-5.4-.865-.41-.614-.523-3.054-.068-5.026a5.417,5.417,0,0,1,2.248-3.631,4.539,4.539,0,0,1,2.305-.609,4.805,4.805,0,0,1,4.2,2.491,12.219,12.219,0,0,1,.606,6.574,1.229,1.229,0,0,1-.628.8,13.081,13.081,0,0,1-3.258.269m-4.427-1.573a16.562,16.562,0,0,0,4.427.383,16.335,16.335,0,0,0,2.722-.153c.391-.7.161-4.59-.477-5.708a3.577,3.577,0,0,0-3.16-1.889,3.387,3.387,0,0,0-1.7.443c-2.185,1.294-2.134,6-1.814,6.924" transform="translate(-251.105 -290.584)" fill="#304489"/>
            </g>
          </g>
        </g>
      </g>
    </g>
    <path id="Path_516" data-name="Path 516" d="M262.77,292.137c-.567,1.185-.768,5.7-.274,5.829.679.177,4.033.513,5.63-.912.321-.28.44-4.008-.441-5.56-.725-1.276-3.932-1.415-4.915.643" transform="translate(-212.149 -256.812)" fill="#fff"/>
    <g id="Group_874" data-name="Group 874" transform="translate(49.473 33.152)" opacity="0.75">
      <g id="Group_873" data-name="Group 873">
        <g id="Group_872" data-name="Group 872" clip-path="url(#clip-path-7)">
          <g id="Group_871" data-name="Group 871" transform="translate(0 0)">
            <g id="Group_870" data-name="Group 870" clip-path="url(#clip-path-8)">
              <path id="Path_517" data-name="Path 517" d="M264.523,298.957h0a9.2,9.2,0,0,1-1.95-.184.756.756,0,0,1-.5-.444c-.441-.946-.189-5.016.389-6.218a3.6,3.6,0,0,1,3.323-1.918,2.976,2.976,0,0,1,2.649,1.237c.9,1.586.987,5.7.316,6.3a6.517,6.517,0,0,1-4.228,1.228m-1.413-1.291a9.453,9.453,0,0,0,1.413.1,5.755,5.755,0,0,0,3.36-.863,9.78,9.78,0,0,0-.487-4.888,1.917,1.917,0,0,0-1.61-.633,2.438,2.438,0,0,0-2.252,1.239,14.109,14.109,0,0,0-.425,5.044" transform="translate(-261.851 -290.193)" fill="#304489"/>
            </g>
          </g>
        </g>
      </g>
    </g>
    <path id="Path_518" data-name="Path 518" d="M266.06,296.52s3.282,1.086,4.328-.667c.537-.9.808-5.059-.961-5.632-1.369-.445-4.489-.492-3.367,6.3" transform="translate(-209.884 -257.129)" fill="#fff"/>
    <g id="Group_879" data-name="Group 879" transform="translate(55.342 32.328)" opacity="0.75">
      <g id="Group_878" data-name="Group 878">
        <g id="Group_877" data-name="Group 877" clip-path="url(#clip-path-9)">
          <g id="Group_876" data-name="Group 876" transform="translate(0.002 0)">
            <g id="Group_875" data-name="Group 875" clip-path="url(#clip-path-10)">
              <path id="Path_519" data-name="Path 519" d="M268.37,297.675h0a8.149,8.149,0,0,1-2.268-.361l-.34-.112-.059-.357c-.492-2.955-.244-5.034.728-6.177a2.776,2.776,0,0,1,2.2-.98,4.032,4.032,0,0,1,1.211.2,2.318,2.318,0,0,1,1.418,1.529,7.55,7.55,0,0,1-.13,4.977,2.934,2.934,0,0,1-2.755,1.286m-1.553-1.4a6.665,6.665,0,0,0,1.552.207,1.872,1.872,0,0,0,1.737-.708,6.57,6.57,0,0,0,.036-3.946,1.213,1.213,0,0,0-.671-.814,2.715,2.715,0,0,0-.845-.14,1.614,1.614,0,0,0-1.289.56c-.485.57-.954,1.876-.519,4.842" transform="translate(-265.458 -289.686)" fill="#304489"/>
            </g>
          </g>
        </g>
      </g>
    </g>
    <path id="Path_520" data-name="Path 520" d="M268.747,295.789s2.778-.081,3.172-.938.643-4.619-.467-5.3c-1.332-.812-2.763.407-2.7,6.234" transform="translate(-208.048 -257.584)" fill="#fff"/>
    <g id="Group_884" data-name="Group 884" transform="translate(60.099 31.154)" opacity="0.75">
      <g id="Group_883" data-name="Group 883">
        <g id="Group_882" data-name="Group 882" clip-path="url(#clip-path-11)">
          <g id="Group_881" data-name="Group 881" transform="translate(0.002 0.002)">
            <g id="Group_880" data-name="Group 880" clip-path="url(#clip-path-12)">
              <path id="Path_521" data-name="Path 521" d="M268.389,296.632l-.01-.609c-.034-3.383.423-5.578,1.361-6.521a1.732,1.732,0,0,1,2.248-.226c1.535.935,1.109,5.163.7,6.053-.5,1.073-2.75,1.252-3.691,1.283Zm2.574-6.48a.518.518,0,0,0-.379.186c-.3.306-.977,1.4-1.011,5.045a4.018,4.018,0,0,0,2.035-.555c.4-.874.412-4.14-.238-4.537a.813.813,0,0,0-.407-.138" transform="translate(-268.38 -288.967)" fill="#304489"/>
            </g>
          </g>
        </g>
      </g>
    </g>
    <path id="Path_522" data-name="Path 522" d="M270.78,294.252s2.375-.594,2.777-1.613c.283-.716.5-3.1-.339-3.746-.646-.5-2.488.542-2.439,5.36" transform="translate(-206.77 -257.929)" fill="#fff"/>
    <g id="Group_889" data-name="Group 889" transform="translate(63.413 30.266)" opacity="0.75">
      <g id="Group_888" data-name="Group 888">
        <g id="Group_887" data-name="Group 887" clip-path="url(#clip-path-13)">
          <g id="Group_886" data-name="Group 886">
            <g id="Group_885" data-name="Group 885" clip-path="url(#clip-path-14)">
              <path id="Path_523" data-name="Path 523" d="M270.424,295.238l-.01-.755c-.034-3.468.889-4.922,1.441-5.479a1.511,1.511,0,0,1,1.957-.358c1.2.925.812,3.717.529,4.438-.488,1.242-2.74,1.859-3.186,1.972Zm2.664-5.648a.852.852,0,0,0-.386.251c-.311.313-.988,1.281-1.084,3.826.721-.265,1.472-.656,1.615-1.018.267-.676.348-2.678-.145-3.059" transform="translate(-270.413 -288.42)" fill="#304489"/>
            </g>
          </g>
        </g>
      </g>
    </g>
    <path id="Path_524" data-name="Path 524" d="M253.2,292.137c.565,1.185.768,5.7.278,5.829-.682.177-4.036.513-5.635-.912-.319-.28-.44-4.008.441-5.56.723-1.276,3.932-1.415,4.915.643" transform="translate(-221.323 -256.812)" fill="#fff"/>
    <g id="Group_894" data-name="Group 894" transform="translate(25.69 33.149)" opacity="0.75">
      <g id="Group_893" data-name="Group 893">
        <g id="Group_892" data-name="Group 892" clip-path="url(#clip-path-15)">
          <g id="Group_891" data-name="Group 891" transform="translate(0 0.002)">
            <g id="Group_890" data-name="Group 890" clip-path="url(#clip-path-16)">
              <path id="Path_525" data-name="Path 525" d="M251.911,298.958a6.526,6.526,0,0,1-4.228-1.228c-.671-.6-.581-4.715.317-6.3a2.971,2.971,0,0,1,2.647-1.239,3.613,3.613,0,0,1,3.325,1.921c.575,1.2.83,5.27.389,6.214a.754.754,0,0,1-.5.446,9.026,9.026,0,0,1-1.949.185m-3.362-2.053a5.76,5.76,0,0,0,3.362.863,9.564,9.564,0,0,0,1.416-.1,14.3,14.3,0,0,0-.428-5.044,2.436,2.436,0,0,0-2.252-1.239,1.909,1.909,0,0,0-1.612.635,9.824,9.824,0,0,0-.487,4.886" transform="translate(-247.243 -290.193)" fill="#304489"/>
            </g>
          </g>
        </g>
      </g>
    </g>
    <path id="Path_526" data-name="Path 526" d="M249.46,296.52s-3.282,1.086-4.326-.667c-.539-.9-.809-5.059.957-5.632,1.369-.445,4.49-.492,3.369,6.3" transform="translate(-223.133 -257.129)" fill="#fff"/>
    <g id="Group_899" data-name="Group 899" transform="translate(21.004 32.328)" opacity="0.75">
      <g id="Group_898" data-name="Group 898">
        <g id="Group_897" data-name="Group 897" clip-path="url(#clip-path-9)">
          <g id="Group_896" data-name="Group 896" transform="translate(0 0.002)">
            <g id="Group_895" data-name="Group 895" clip-path="url(#clip-path-18)">
              <path id="Path_527" data-name="Path 527" d="M247.608,297.676a2.938,2.938,0,0,1-2.76-1.289,7.561,7.561,0,0,1-.129-4.974,2.319,2.319,0,0,1,1.416-1.529,4,4,0,0,1,1.215-.2,2.783,2.783,0,0,1,2.2.98c.972,1.143,1.216,3.222.728,6.177l-.059.357-.342.111a7.975,7.975,0,0,1-2.266.365m-.257-6.8a2.734,2.734,0,0,0-.847.14,1.216,1.216,0,0,0-.669.812,6.563,6.563,0,0,0,.036,3.948,1.871,1.871,0,0,0,1.737.708,6.72,6.72,0,0,0,1.55-.207c.438-2.966-.033-4.272-.516-4.842a1.615,1.615,0,0,0-1.291-.56" transform="translate(-244.365 -289.689)" fill="#304489"/>
            </g>
          </g>
        </g>
      </g>
    </g>
    <path id="Path_528" data-name="Path 528" d="M246.209,295.789s-2.778-.081-3.17-.938-.645-4.619.466-5.3c1.33-.812,2.763.407,2.7,6.234" transform="translate(-224.404 -257.584)" fill="#fff"/>
    <g id="Group_904" data-name="Group 904" transform="translate(17.709 31.154)" opacity="0.75">
      <g id="Group_903" data-name="Group 903">
        <g id="Group_902" data-name="Group 902" clip-path="url(#clip-path-19)">
          <g id="Group_901" data-name="Group 901" transform="translate(0 0.002)">
            <g id="Group_900" data-name="Group 900" clip-path="url(#clip-path-20)">
              <path id="Path_529" data-name="Path 529" d="M247.025,296.632l-.607-.02c-.943-.031-3.2-.21-3.691-1.283-.412-.889-.837-5.117.7-6.053a1.737,1.737,0,0,1,2.252.226c.935.943,1.394,3.137,1.358,6.521Zm-2.574-6.48a.823.823,0,0,0-.409.138c-.648.4-.64,3.663-.236,4.539a4.026,4.026,0,0,0,2.037.554c-.034-3.649-.713-4.739-1.014-5.045a.518.518,0,0,0-.378-.186" transform="translate(-242.341 -288.967)" fill="#304489"/>
            </g>
          </g>
        </g>
      </g>
    </g>
    <path id="Path_530" data-name="Path 530" d="M243.992,294.252s-2.375-.594-2.778-1.613c-.283-.716-.5-3.1.339-3.746.648-.5,2.488.542,2.439,5.36" transform="translate(-225.498 -257.929)" fill="#fff"/>
    <g id="Group_909" data-name="Group 909" transform="translate(14.868 30.266)" opacity="0.75">
      <g id="Group_908" data-name="Group 908">
        <g id="Group_907" data-name="Group 907" clip-path="url(#clip-path-14)">
          <g id="Group_906" data-name="Group 906" transform="translate(0 -0.002)">
            <g id="Group_905" data-name="Group 905" clip-path="url(#clip-path-22)">
              <path id="Path_531" data-name="Path 531" d="M244.81,295.238l-.733-.182c-.446-.112-2.7-.731-3.186-1.973-.285-.718-.676-3.512.526-4.435a1.51,1.51,0,0,1,1.96.357c.554.557,1.473,2.012,1.439,5.48Zm-2.677-5.636c-.485.37-.4,2.374-.137,3.046.142.352.887.747,1.618,1.018-.094-2.543-.775-3.51-1.083-3.823-.23-.233-.381-.241-.4-.241" transform="translate(-240.596 -288.418)" fill="#304489"/>
            </g>
          </g>
        </g>
      </g>
    </g>
    <path id="Path_532" data-name="Path 532" d="M251.227,298.579c.55,1.185.749,5.7.269,5.832-.666.174-3.935.511-5.495-.913-.311-.28-.427-4.01.431-5.562.708-1.276,3.837-1.413,4.795.643" transform="translate(-222.479 -252.765)" fill="#fff"/>
    <g id="Group_914" data-name="Group 914" transform="translate(22.696 43.639)" opacity="0.75">
      <g id="Group_913" data-name="Group 913">
        <g id="Group_912" data-name="Group 912" clip-path="url(#clip-path-23)">
          <g id="Group_911" data-name="Group 911">
            <g id="Group_910" data-name="Group 910" clip-path="url(#clip-path-23)">
              <path id="Path_533" data-name="Path 533" d="M249.969,305.4a6.271,6.271,0,0,1-4.137-1.233c-.655-.593-.565-4.705.309-6.289a2.894,2.894,0,0,1,2.6-1.244A3.53,3.53,0,0,1,252,298.557c.565,1.218.809,5.286.371,6.219a.75.75,0,0,1-.49.438,8.781,8.781,0,0,1-1.91.186m-3.261-2.047a5.49,5.49,0,0,0,3.261.858,9.168,9.168,0,0,0,1.366-.1,14.525,14.525,0,0,0-.417-5.052,2.363,2.363,0,0,0-2.182-1.232,1.829,1.829,0,0,0-1.553.627,10.033,10.033,0,0,0-.475,4.9" transform="translate(-245.404 -296.634)" fill="#304489"/>
            </g>
          </g>
        </g>
      </g>
    </g>
    <path id="Path_534" data-name="Path 534" d="M254.992,299.469c.552,1.185.749,5.7.269,5.827-.664.179-3.935.515-5.493-.91-.311-.28-.427-4.008.428-5.56.71-1.276,3.839-1.415,4.8.643" transform="translate(-220.113 -252.206)" fill="#fff"/>
    <g id="Group_919" data-name="Group 919" transform="translate(28.824 45.088)" opacity="0.75">
      <g id="Group_918" data-name="Group 918">
        <g id="Group_917" data-name="Group 917" clip-path="url(#clip-path-25)">
          <g id="Group_916" data-name="Group 916">
            <g id="Group_915" data-name="Group 915" clip-path="url(#clip-path-26)">
              <path id="Path_535" data-name="Path 535" d="M253.734,306.288a6.269,6.269,0,0,1-4.137-1.232c-.655-.591-.565-4.705.309-6.288a2.891,2.891,0,0,1,2.6-1.244,3.525,3.525,0,0,1,3.259,1.923c.567,1.218.811,5.286.373,6.219a.741.741,0,0,1-.492.436,8.646,8.646,0,0,1-1.908.186m-3.261-2.045a5.483,5.483,0,0,0,3.261.856,9.223,9.223,0,0,0,1.366-.1,14.525,14.525,0,0,0-.417-5.052,2.363,2.363,0,0,0-2.182-1.233,1.825,1.825,0,0,0-1.553.627,10.032,10.032,0,0,0-.475,4.9" transform="translate(-249.167 -297.524)" fill="#304489"/>
            </g>
          </g>
        </g>
      </g>
    </g>
    <path id="Path_536" data-name="Path 536" d="M258.675,299.923c.552,1.185.645,5.343.163,5.47-.664.176-3.829.873-5.389-.552-.309-.282-.427-4.01.43-5.562.71-1.275,3.837-1.413,4.8.643" transform="translate(-217.8 -251.921)" fill="#fff"/>
    <g id="Group_924" data-name="Group 924" transform="translate(34.822 45.829)" opacity="0.75">
      <g id="Group_923" data-name="Group 923">
        <g id="Group_922" data-name="Group 922" clip-path="url(#clip-path-27)">
          <g id="Group_921" data-name="Group 921">
            <g id="Group_920" data-name="Group 920" clip-path="url(#clip-path-28)">
              <path id="Path_537" data-name="Path 537" d="M256.566,306.544a4.734,4.734,0,0,1-3.287-1.034c-.653-.593-.565-4.705.309-6.288a2.888,2.888,0,0,1,2.6-1.244,3.522,3.522,0,0,1,3.26,1.924c.547,1.177.726,4.889.28,5.841a.774.774,0,0,1-.5.453,11.1,11.1,0,0,1-2.654.347m-2.411-1.848a3.924,3.924,0,0,0,2.411.654,9.9,9.9,0,0,0,2.123-.249,12.506,12.506,0,0,0-.324-4.7,2.366,2.366,0,0,0-2.18-1.232,1.827,1.827,0,0,0-1.553.627,10.036,10.036,0,0,0-.477,4.9" transform="translate(-252.852 -297.979)" fill="#304489"/>
            </g>
          </g>
        </g>
      </g>
    </g>
    <path id="Path_538" data-name="Path 538" d="M247.574,302.962s-3.2,1.086-4.22-.667c-.524-.9-.788-5.06.936-5.632,1.337-.443,4.378-.492,3.284,6.3" transform="translate(-224.244 -253.082)" fill="#fff"/>
    <g id="Group_929" data-name="Group 929" transform="translate(18.122 42.816)" opacity="0.75">
      <g id="Group_928" data-name="Group 928">
        <g id="Group_927" data-name="Group 927" clip-path="url(#clip-path-29)">
          <g id="Group_926" data-name="Group 926">
            <g id="Group_925" data-name="Group 925" clip-path="url(#clip-path-30)">
              <path id="Path_539" data-name="Path 539" d="M245.776,304.118a2.864,2.864,0,0,1-2.708-1.294,7.686,7.686,0,0,1-.111-5,2.274,2.274,0,0,1,1.376-1.491,3.8,3.8,0,0,1,1.19-.2,2.71,2.71,0,0,1,2.133.952c.967,1.136,1.215,3.224.736,6.2l-.059.357-.339.116a7.831,7.831,0,0,1-2.219.363m-.252-6.8a2.6,2.6,0,0,0-.816.138,1.183,1.183,0,0,0-.637.783,6.693,6.693,0,0,0,.028,3.986,1.79,1.79,0,0,0,1.677.7,6.339,6.339,0,0,0,1.5-.2c.43-3-.039-4.3-.523-4.87a1.534,1.534,0,0,0-1.228-.536" transform="translate(-242.595 -296.129)" fill="#304489"/>
            </g>
          </g>
        </g>
      </g>
    </g>
    <path id="Path_540" data-name="Path 540" d="M244.4,302.231s-2.706-.083-3.09-.938-.627-4.619.456-5.3c1.3-.811,2.693.407,2.634,6.234" transform="translate(-225.483 -253.537)" fill="#fff"/>
    <g id="Group_934" data-name="Group 934" transform="translate(14.913 41.643)" opacity="0.75">
      <g id="Group_933" data-name="Group 933">
        <g id="Group_932" data-name="Group 932" clip-path="url(#clip-path-31)">
          <g id="Group_931" data-name="Group 931" transform="translate(0 0)">
            <g id="Group_930" data-name="Group 930" clip-path="url(#clip-path-32)">
              <path id="Path_541" data-name="Path 541" d="M245.22,303.073l-.607-.018c-.925-.029-3.129-.21-3.614-1.289-.4-.887-.812-5.109.682-6.045a1.688,1.688,0,0,1,2.2.208c.926.933,1.377,3.134,1.345,6.537Zm-2.525-6.478a.762.762,0,0,0-.384.134c-.635.4-.622,3.67-.226,4.549a3.774,3.774,0,0,0,1.952.547c-.033-3.673-.7-4.756-1-5.057a.467.467,0,0,0-.344-.173" transform="translate(-240.624 -295.408)" fill="#304489"/>
            </g>
          </g>
        </g>
      </g>
    </g>
    <path id="Path_542" data-name="Path 542" d="M264.741,298.579c-.552,1.185-.749,5.7-.269,5.832.664.174,3.935.511,5.492-.913.313-.28.43-4.01-.43-5.562-.7-1.276-3.836-1.413-4.793.643" transform="translate(-210.903 -252.765)" fill="#fff"/>
    <g id="Group_939" data-name="Group 939" transform="translate(52.701 43.64)" opacity="0.75">
      <g id="Group_938" data-name="Group 938">
        <g id="Group_937" data-name="Group 937" clip-path="url(#clip-path-25)">
          <g id="Group_936" data-name="Group 936">
            <g id="Group_935" data-name="Group 935" clip-path="url(#clip-path-26)">
              <path id="Path_543" data-name="Path 543" d="M266.458,305.4h0a8.8,8.8,0,0,1-1.91-.184.755.755,0,0,1-.49-.438c-.438-.934-.194-5,.373-6.219a3.521,3.521,0,0,1,3.259-1.923,2.888,2.888,0,0,1,2.6,1.242c.878,1.586.964,5.7.311,6.291a6.291,6.291,0,0,1-4.139,1.231m-1.366-1.289a8.953,8.953,0,0,0,1.366.1,5.479,5.479,0,0,0,3.261-.856,10.034,10.034,0,0,0-.475-4.9,1.821,1.821,0,0,0-1.553-.628,2.362,2.362,0,0,0-2.18,1.236,14.552,14.552,0,0,0-.418,5.049" transform="translate(-263.834 -296.635)" fill="#304489"/>
            </g>
          </g>
        </g>
      </g>
    </g>
    <path id="Path_544" data-name="Path 544" d="M260.977,299.469c-.552,1.185-.749,5.7-.269,5.827.664.179,3.935.515,5.492-.91.313-.28.43-4.008-.427-5.56-.71-1.276-3.839-1.415-4.8.643" transform="translate(-213.267 -252.206)" fill="#fff"/>
    <g id="Group_944" data-name="Group 944" transform="translate(46.573 45.089)" opacity="0.75">
      <g id="Group_943" data-name="Group 943">
        <g id="Group_942" data-name="Group 942" clip-path="url(#clip-path-35)">
          <g id="Group_941" data-name="Group 941" transform="translate(0 0)">
            <g id="Group_940" data-name="Group 940" clip-path="url(#clip-path-36)">
              <path id="Path_545" data-name="Path 545" d="M262.7,306.287h0a8.806,8.806,0,0,1-1.91-.184.758.758,0,0,1-.488-.436c-.44-.935-.2-5,.371-6.219a3.52,3.52,0,0,1,3.259-1.923,2.885,2.885,0,0,1,2.6,1.242c.874,1.583.964,5.7.311,6.289a6.288,6.288,0,0,1-4.137,1.231M261.328,305a9.2,9.2,0,0,0,1.366.1,5.49,5.49,0,0,0,3.261-.855,10.065,10.065,0,0,0-.472-4.9,1.832,1.832,0,0,0-1.556-.628,2.358,2.358,0,0,0-2.18,1.234,14.483,14.483,0,0,0-.418,5.05" transform="translate(-260.07 -297.525)" fill="#304489"/>
            </g>
          </g>
        </g>
      </g>
    </g>
    <path id="Path_546" data-name="Path 546" d="M257.406,299.863c-.475,1.174-.563,5.334-.132,5.467.6.186,3.505.913,4.879-.485a10.711,10.711,0,0,0-.467-5.557c-.654-1.285-3.453-1.464-4.28.575" transform="translate(-215.428 -251.933)" fill="#fff"/>
    <g id="Group_949" data-name="Group 949" transform="translate(40.969 45.799)" opacity="0.75">
      <g id="Group_948" data-name="Group 948">
        <g id="Group_947" data-name="Group 947" clip-path="url(#clip-path-37)">
          <g id="Group_946" data-name="Group 946" transform="translate(0 -0.002)">
            <g id="Group_945" data-name="Group 945" clip-path="url(#clip-path-38)">
              <path id="Path_547" data-name="Path 547" d="M259.865,306.51h0a9.557,9.557,0,0,1-2.54-.381.741.741,0,0,1-.453-.422c-.414-.865-.277-4.63.213-5.838A3.065,3.065,0,0,1,260,297.961a2.7,2.7,0,0,1,2.447,1.286c.744,1.47.982,5.612.36,6.244a3.963,3.963,0,0,1-2.942,1.019m-1.96-1.456a8.086,8.086,0,0,0,1.96.265,2.96,2.96,0,0,0,2.024-.594,11.23,11.23,0,0,0-.5-4.938,1.556,1.556,0,0,0-1.384-.637,1.9,1.9,0,0,0-1.812,1.166,14.217,14.217,0,0,0-.283,4.738" transform="translate(-256.628 -297.959)" fill="#304489"/>
            </g>
          </g>
        </g>
      </g>
    </g>
    <path id="Path_548" data-name="Path 548" d="M267.95,302.962s3.2,1.086,4.22-.667c.524-.9.79-5.06-.936-5.632-1.337-.443-4.378-.492-3.284,6.3" transform="translate(-208.694 -253.082)" fill="#fff"/>
    <g id="Group_954" data-name="Group 954" transform="translate(58.431 42.816)" opacity="0.75">
      <g id="Group_953" data-name="Group 953">
        <g id="Group_952" data-name="Group 952" clip-path="url(#clip-path-39)">
          <g id="Group_951" data-name="Group 951" transform="translate(0 0)">
            <g id="Group_950" data-name="Group 950" clip-path="url(#clip-path-39)">
              <path id="Path_549" data-name="Path 549" d="M270.207,304.118h0a7.73,7.73,0,0,1-2.221-.365l-.34-.116-.055-.353c-.48-2.979-.234-5.067.734-6.2a2.713,2.713,0,0,1,2.134-.952,3.867,3.867,0,0,1,1.19.2,2.288,2.288,0,0,1,1.374,1.491,7.68,7.68,0,0,1-.111,5.006,2.866,2.866,0,0,1-2.706,1.294m-1.5-1.4a6.283,6.283,0,0,0,1.5.2,1.79,1.79,0,0,0,1.677-.7,6.71,6.71,0,0,0,.028-3.987,1.2,1.2,0,0,0-.637-.781,2.64,2.64,0,0,0-.816-.137,1.538,1.538,0,0,0-1.229.536c-.482.567-.952,1.872-.523,4.868" transform="translate(-267.353 -296.129)" fill="#304489"/>
            </g>
          </g>
        </g>
      </g>
    </g>
    <path id="Path_550" data-name="Path 550" d="M270.57,302.231s2.708-.083,3.092-.938.627-4.619-.457-5.3c-1.3-.811-2.691.407-2.634,6.234" transform="translate(-206.903 -253.537)" fill="#fff"/>
    <g id="Group_959" data-name="Group 959" transform="translate(63.069 41.643)" opacity="0.75">
      <g id="Group_958" data-name="Group 958">
        <g id="Group_957" data-name="Group 957" clip-path="url(#clip-path-31)">
          <g id="Group_956" data-name="Group 956" transform="translate(0.002 0.002)">
            <g id="Group_955" data-name="Group 955" clip-path="url(#clip-path-42)">
              <path id="Path_551" data-name="Path 551" d="M270.21,303.073l-.006-.607c-.033-3.4.418-5.6,1.345-6.537a1.689,1.689,0,0,1,2.2-.208c1.495.936,1.083,5.158.684,6.043-.487,1.081-2.691,1.262-3.616,1.291Zm2.527-6.478a.467.467,0,0,0-.344.173c-.3.3-.965,1.384-1,5.057a3.778,3.778,0,0,0,1.954-.549c.4-.878.407-4.15-.228-4.547a.762.762,0,0,0-.384-.133" transform="translate(-270.204 -295.409)" fill="#304489"/>
            </g>
          </g>
        </g>
      </g>
    </g>
  </g>
</svg>
